<svg xmlns="http://www.w3.org/2000/svg" width="447.194" height="364.249" viewBox="0 0 447.194 364.249">
  <g id="Group_1722" data-name="Group 1722" transform="translate(-736 -2037)">
    <g id="Group_1721" data-name="Group 1721" transform="translate(1 82)">
      <g id="Group_1661" data-name="Group 1661" transform="translate(667.001 1816)">
        <path id="Union_40" data-name="Union 40" d="M137.455,354.249a13.637,13.637,0,0,1,0-27.274h38.657c11.1,0,13.636-7.058,13.636-13.636a13.635,13.635,0,0,0-11.06-13.394c-38.623-.107-72.183-.243-75.317-.243H23.051a13.636,13.636,0,0,1,0-27.273H130.487a13.635,13.635,0,0,0,1.434-27.194H94.592a13.039,13.039,0,0,1-1.435-.078H83.576a13.636,13.636,0,1,1,0-27.273h51.067a13.635,13.635,0,0,0-1.421-27.2h-17.8c-.144,0-.274-.026-.418-.026H34.476a13.63,13.63,0,1,1,0-27.26H93.958a13.636,13.636,0,0,0,0-27.273H13.639a13.643,13.643,0,0,1,0-27.286H121.074a13.634,13.634,0,0,0,2.569-27.025H106.017a13.825,13.825,0,0,1-2.569-.247H95A13.636,13.636,0,1,1,95,54.3c35.461,0,74.818.049,117.178.1a13.633,13.633,0,0,0-1.918-27.131H171.623a13.636,13.636,0,0,1,0-27.271H285.539a13.635,13.635,0,0,1,0,27.271H267.723a13.636,13.636,0,0,0-1.4,27.2c37.084.042,75.973.076,116.162.076a13.636,13.636,0,1,1,0,27.273H275.046a13.634,13.634,0,0,0-2.568,27.025h80.153a13.825,13.825,0,0,1,2.569.248h8.435a13.636,13.636,0,0,1,0,27.273H339.744a13.633,13.633,0,0,0,2.555,27.025h59.482l-69.583.026H433.559a13.636,13.636,0,1,1,0,27.273h-80.32a13.636,13.636,0,1,0,0,27.273H412.72a13.637,13.637,0,1,1,0,27.274h-86.6a13.635,13.635,0,0,0-1.434,27.194H341.18a13.014,13.014,0,0,1,1.434.078H352.2a13.636,13.636,0,1,1,0,27.273h-51.08c-1.659.17-13.613.253-30.9.282a13.636,13.636,0,0,0,3.112,26.913H313.9a13.637,13.637,0,0,1,0,27.274Z" transform="translate(515.194 503.249) rotate(180)" fill="#141219"/>
      </g>
    </g>
    <g id="Group_1691" data-name="Group 1691" transform="translate(-5546 200.473)">
      <g id="Group_1683" data-name="Group 1683" transform="translate(6512.331 2123.878) rotate(-161)">
        <path id="Path_3975" data-name="Path 3975" d="M8.13,0H93.072a8.13,8.13,0,0,1,8.13,8.13v97.649a8.13,8.13,0,0,1-8.13,8.13H8.13A8.13,8.13,0,0,1,0,105.779V8.13A8.13,8.13,0,0,1,8.13,0Z" transform="translate(0 32.751) rotate(-18.882)" fill="#04d361"/>
      </g>
      <g id="Group_1684" data-name="Group 1684" transform="translate(6536.159 2203.091) rotate(-161)">
        <rect id="Rectangle_978" data-name="Rectangle 978" width="76.832" height="98.674" transform="translate(63.358 106.208) rotate(-18.882)" fill="#e8f4fc"/>
        <path id="Path_3648" data-name="Path 3648" d="M0,22.346C6.345,16,16.544,11.37,30.656,6.544,47.232.873,59.375-1.7,69.056,1.2L.758,24.563Z" transform="translate(94.533 175.009)" fill="#a1c2e2"/>
        <path id="Path_3649" data-name="Path 3649" d="M81.929,37.109,18.12,58.932c-8.687,2.971-11.2-5.3-14.644-15.374h0C.029,33.481-3.05,25.409,5.638,22.437L69.446.613c8.688-2.971,11.2,5.3,14.644,15.374h0C87.537,26.065,90.616,34.137,81.929,37.109Z" transform="translate(61.362 79.905)" fill="#e8f4fc"/>
        <rect id="Rectangle_979" data-name="Rectangle 979" width="28.502" height="37.093" transform="translate(51.609 71.917) rotate(-18.882)" fill="#e8f4fc"/>
        <path id="Path_3650" data-name="Path 3650" d="M26.969,0,0,9.224,11.408,49.279,42.187,38.752Z" transform="translate(37.271 20.775)" fill="#e8f4fc"/>
        <path id="Path_3651" data-name="Path 3651" d="M0,10.126s1.175,18.753,12.638,12.54S29.607,0,29.607,0Z" transform="translate(29.796 22.429)" fill="#a1c2e2"/>
        <rect id="Rectangle_981" data-name="Rectangle 981" width="36.402" height="2.711" transform="translate(28.919 29.99) rotate(-18.882)" fill="#4061bf"/>
        <path id="Path_3652" data-name="Path 3652" d="M0,1.152,3.371,0,6.057,6.84C1.5,6.621,0,1.152,0,1.152Z" transform="translate(60.869 20.775)" fill="#a1c2e2"/>
        <rect id="Rectangle_982" data-name="Rectangle 982" width="28.502" height="37.093" transform="matrix(-0.946, 0.324, -0.324, -0.946, 136.347, 82.137)" fill="#e8f4fc"/>
        <path id="Path_3653" data-name="Path 3653" d="M16.262,39.293,0,15.466,30.019,0,43.073,25.338Z" transform="translate(52.199 174.244)" fill="#e8f4fc"/>
        <path id="Path_3655" data-name="Path 3655" d="M20.055,47.459,0,27.206,24.941,0,47.5,22.785Z" transform="translate(22.4 192.211)" fill="#e8f4fc"/>
        <path id="Rectangle_985" data-name="Rectangle 985" d="M0,0H28.5a0,0,0,0,1,0,0V20.484a9.875,9.875,0,0,1-9.875,9.875H14.292A14.292,14.292,0,0,1,0,16.067V0A0,0,0,0,1,0,0Z" transform="matrix(0.704, 0.711, -0.711, 0.704, 21.572, 220.236)" fill="#e8f4fc"/>
        <path id="Path_3656" data-name="Path 3656" d="M0,9.224,26.969,0,42.48,38.652,11.7,49.179Z" transform="translate(83.037 5.122)" fill="#e8f4fc"/>
        <path id="Path_3657" data-name="Path 3657" d="M29.607,0S40.162,15.545,27.3,17.654,0,10.126,0,10.126Z" transform="translate(87.874 2.565)" fill="#a1c2e2"/>
        <rect id="Rectangle_986" data-name="Rectangle 986" width="36.402" height="2.711" transform="translate(117.481 2.565) rotate(161.118)" fill="#4061bf"/>
        <path id="Path_3658" data-name="Path 3658" d="M3.371,0,0,1.152,2.065,8.2C5.534,5.241,3.371,0,3.371,0Z" transform="translate(83.038 13.193)" fill="#a1c2e2"/>
        <path id="Path_3659" data-name="Path 3659" d="M17.157,11.679l2.792,8.567A4.182,4.182,0,0,1,12,22.838L9.874,16.329c-3.006.059-6.356-.781-8.505-4.084C-3.333,5.021,5.589,0,5.589,0Z" transform="translate(24.103 228.436)" fill="#a1c2e2"/>
        <path id="Path_3660" data-name="Path 3660" d="M9.812,0,37.622,6.241,31.288,42.6,0,35.581Z" transform="translate(156.762 96.556)" fill="#e8f4fc"/>
        <path id="Path_3661" data-name="Path 3661" d="M37.257,17.417l-3.74,16.661L14,29.7h0L5.707,27.837l.029-.126L.492,17.872a4.182,4.182,0,1,1,7.381-3.933l.67,1.257,1.8-8.025A9.179,9.179,0,0,1,21.31.225L27.2,1.547A13.284,13.284,0,0,1,37.257,17.417Z" transform="translate(161.123 67.583)" fill="#e8f4fc"/>
        <path id="Path_3663" data-name="Path 3663" d="M15.674,38.42,0,4.061,1.849,0l25.94,11.81Z" transform="translate(155.512 131.944)" fill="#e8f4fc"/>
        <g id="Group_1690" data-name="Group 1690" transform="translate(21.191 44.475)">
          <rect id="Rectangle_980" data-name="Rectangle 980" width="28.502" height="2.711" transform="translate(29.54 24.877) rotate(-18.882)" fill="#1bcf6c"/>
          <rect id="Rectangle_983" data-name="Rectangle 983" width="28.502" height="2.711" transform="translate(103.152 2.565) rotate(161.118)" fill="#1bcf6c"/>
          <rect id="Rectangle_984" data-name="Rectangle 984" width="29.588" height="1.163" transform="translate(0.826 174.557) rotate(45.28)" fill="#1bcf6c"/>
          <rect id="Rectangle_987" data-name="Rectangle 987" width="29.588" height="1.163" transform="translate(173.723 58.44) rotate(-167.351)" fill="#1bcf6c"/>
          <path id="Path_3662" data-name="Path 3662" d="M26.16,5.871a6.67,6.67,0,0,1-1.636,5.295L0,0Z" transform="translate(137.586 88.113)" fill="#1bcf6c"/>
          <path id="Path_3664" data-name="Path 3664" d="M13.117,38.7c1.92-.247,3.306-2.882,3.2-4.343L.64,0,0,.351Z" transform="translate(133.68 91.53)" fill="#1bcf6c"/>
          <path id="Path_3665" data-name="Path 3665" d="M0,1.715A7.36,7.36,0,0,1,3.824,0l9.23,27.052Z" transform="translate(61.026 128.054)" fill="#1bcf6c"/>
          <path id="Path_3666" data-name="Path 3666" d="M0,3.292H0A7.788,7.788,0,0,1,4.074,0L20.336,23.828Z" transform="translate(26.933 145.235)" fill="#1bcf6c"/>
        </g>
        <rect id="Rectangle_988" data-name="Rectangle 988" width="50.189" height="29.235" transform="translate(90.081 143.176) rotate(-18.882)" fill="#4061bf"/>
        <rect id="Rectangle_989" data-name="Rectangle 989" width="47.246" height="26.645" transform="matrix(0.946, -0.324, 0.324, 0.946, 91.893, 143.925)" fill="#e8f4fc"/>
        <path id="Path_3667" data-name="Path 3667" d="M4.522,1.572a2.324,2.324,0,1,0-1.446,2.95A2.323,2.323,0,0,0,4.522,1.572Z" transform="translate(102.736 158.545)" fill="#8cc84b"/>
        <path id="Path_3668" data-name="Path 3668" d="M4.523,1.572A2.324,2.324,0,1,0,3.077,4.523,2.323,2.323,0,0,0,4.523,1.572Z" transform="translate(98.224 145.354)" fill="#5667f9"/>
        <path id="Path_3669" data-name="Path 3669" d="M4.523,1.573a2.324,2.324,0,1,0-1.446,2.95A2.323,2.323,0,0,0,4.523,1.573Z" transform="translate(100.48 151.949)" fill="#2ac7e3"/>
        <path id="Path_3693" data-name="Path 3693" d="M0,12.766H17.194V0H0Z" transform="translate(107.256 146.005) rotate(-18.882)" fill="#1bcf6c"/>
        <rect id="Rectangle_991" data-name="Rectangle 991" width="9.333" height="2.207" transform="translate(131.242 152.709) rotate(-18.882)" fill="#221c38"/>
        <rect id="Rectangle_992" data-name="Rectangle 992" width="9.333" height="2.207" transform="translate(129.813 148.534) rotate(-18.882)" fill="#221c38"/>
        <rect id="Rectangle_993" data-name="Rectangle 993" width="9.333" height="2.206" transform="translate(128.385 144.358) rotate(-18.882)" fill="#221c38"/>
        <rect id="Rectangle_994" data-name="Rectangle 994" width="9.333" height="2.206" transform="translate(126.957 140.183) rotate(-18.882)" fill="#221c38"/>
        <rect id="Rectangle_995" data-name="Rectangle 995" width="9.333" height="2.207" transform="translate(125.529 136.007) rotate(-18.882)" fill="#221c38"/>
        <path id="Path_3670" data-name="Path 3670" d="M2.461,8.005,15.579,3.519,14.376,0,1.258,4.487A1.858,1.858,0,0,0,.1,6.848h0A1.859,1.859,0,0,0,2.461,8.005Z" transform="translate(77.316 147.883)" fill="#a1c2e2"/>
        <path id="Path_3671" data-name="Path 3671" d="M2.461,8.005,15.579,3.518,14.375,0,1.258,4.486A1.859,1.859,0,0,0,.1,6.847h0A1.86,1.86,0,0,0,2.461,8.005Z" transform="translate(82.353 162.613)" fill="#a1c2e2"/>
        <path id="Path_3672" data-name="Path 3672" d="M13.118.1,0,4.587,1.2,8.106,14.321,3.62a1.86,1.86,0,0,0,1.158-2.362h0A1.859,1.859,0,0,0,13.118.1Z" transform="translate(144.217 141.783)" fill="#a1c2e2"/>
        <path id="Path_3673" data-name="Path 3673" d="M13.117.1,0,4.587,1.2,8.1,14.32,3.619a1.859,1.859,0,0,0,1.158-2.361h0A1.86,1.86,0,0,0,13.117.1Z" transform="translate(139.179 127.054)" fill="#a1c2e2"/>
        <path id="Path_3674" data-name="Path 3674" d="M1.5,10.306h0L21.157,0,0,14.315A6.982,6.982,0,0,1,1.5,10.306Z" transform="translate(61.411 94.644)" fill="#a1c2e2"/>
        <path id="Path_3675" data-name="Path 3675" d="M25.052,2.254,0,3.745,21.413,0h0A6.992,6.992,0,0,1,25.052,2.254Z" transform="translate(114.227 80.071)" fill="#a1c2e2"/>
        <path id="Path_3676" data-name="Path 3676" d="M0,15.466,31.808,3.472,30.019,0Z" transform="translate(52.199 174.244)" fill="#a1c2e2"/>
        <path id="Path_3677" data-name="Path 3677" d="M1.935,8.3,3.265.645,1.849,0,0,4.061Z" transform="translate(155.512 131.944)" fill="#a1c2e2"/>
        <path id="Path_3678" data-name="Path 3678" d="M0,27.206,27.072,2.036,24.941,0Z" transform="translate(22.4 192.211)" fill="#a1c2e2"/>
        <path id="Path_3679" data-name="Path 3679" d="M0,35.581l3.192.716L9.812,0Z" transform="translate(156.762 96.556)" fill="#a1c2e2"/>
        <path id="Path_3680" data-name="Path 3680" d="M7.739,23.5,2.73,0,0,.934Z" transform="translate(51.609 70.983)" fill="#a1c2e2"/>
        <path id="Path_3681" data-name="Path 3681" d="M7.306,22.434,3.133,0,0,1.072Z" transform="translate(97.375 55.192)" fill="#a1c2e2"/>
      </g>
      <g id="Group_1687" data-name="Group 1687" transform="translate(6518.135 2028.729) rotate(-161)">
        <g id="Group_1685" data-name="Group 1685" transform="translate(11.318 75.894)">
          <path id="Path_3684" data-name="Path 3684" d="M16.357,21.446c.224.654.465,1.283.7,1.917l-7.016,2.4a1.554,1.554,0,0,1-1.972-.712L.133,5.587A1.742,1.742,0,0,1,1.207,3.263L10.746,0A124.818,124.818,0,0,0,16.357,21.446Z" transform="translate(0 0)" fill="#04d361"/>
          <path id="Path_3685" data-name="Path 3685" d="M3.279,1.14A1.685,1.685,0,1,0,2.23,3.279,1.685,1.685,0,0,0,3.279,1.14Z" transform="translate(9.366 17.717)" fill="#2d2d2d"/>
          <path id="Path_3686" data-name="Path 3686" d="M6.327,2.2A3.25,3.25,0,1,0,4.3,6.326,3.251,3.251,0,0,0,6.327,2.2Z" transform="translate(4.297 5.909)" fill="#1bcf6c"/>
          <path id="Path_3687" data-name="Path 3687" d="M3.818,1.328A1.962,1.962,0,1,0,2.6,3.819,1.961,1.961,0,0,0,3.818,1.328Z" transform="translate(5.586 7.198)" fill="#2d2d2d"/>
        </g>
        <g id="Group_1686" data-name="Group 1686" transform="translate(115.105 40.683)">
          <path id="Path_3688" data-name="Path 3688" d="M17.437,21.527A1.555,1.555,0,0,1,16.314,23.3l-7,2.392c-.2-.647-.4-1.291-.62-1.945A124.806,124.806,0,0,0,0,3.356L9.52.1A1.743,1.743,0,0,1,11.793,1.28Z" transform="translate(0 0)" fill="#04d361"/>
          <path id="Path_3689" data-name="Path 3689" d="M.091,2.231A1.685,1.685,0,1,1,2.23,3.279,1.685,1.685,0,0,1,.091,2.231Z" transform="translate(9.936 17.202)" fill="#2d2d2d"/>
          <path id="Path_3690" data-name="Path 3690" d="M.176,4.3A3.25,3.25,0,1,1,4.3,6.327,3.251,3.251,0,0,1,.176,4.3Z" transform="translate(4.867 5.394)" fill="#1bcf6c"/>
          <path id="Path_3691" data-name="Path 3691" d="M.106,2.6A1.962,1.962,0,1,1,2.6,3.818,1.962,1.962,0,0,1,.106,2.6Z" transform="translate(6.156 6.683)" fill="#2d2d2d"/>
        </g>
        <ellipse id="Ellipse_104" data-name="Ellipse 104" cx="51.804" cy="51.804" rx="51.804" ry="51.804" transform="translate(73.262 0) rotate(45)" fill="#e8f4fc"/>
        <ellipse id="Ellipse_105" data-name="Ellipse 105" cx="40.546" cy="49.604" rx="40.546" ry="49.604" transform="translate(105.894 15.39) rotate(71.118)" fill="#bababa"/>
        <ellipse id="Ellipse_106" data-name="Ellipse 106" cx="39.5" cy="48.325" rx="39.5" ry="48.325" transform="translate(105.022 16.793) rotate(71.118)"/>
        <path id="Path_3692" data-name="Path 3692" d="M.618,24.115c2.71,3.616,11.95-3.473,15.61-10S20.624,1.783,17.406.324c-4.36-1.978-4.256,5.508-9.024,11.313C5.584,15.045-2.239,20.3.618,24.115Z" transform="translate(94.681 64.395)" fill="#918ca3"/>
      </g>
      <g id="Group_1681" data-name="Group 1681" transform="translate(6581.152 1836.527)">
        <g id="Group_1680" data-name="Group 1680" transform="translate(0 0)">
          <g id="Group_1678" data-name="Group 1678" transform="translate(0)">
            <rect id="Rectangle_976" data-name="Rectangle 976" width="6.45" height="325.973" transform="translate(6.45 325.973) rotate(-180)" fill="#c8d1d6"/>
            <g id="Group_1677" data-name="Group 1677" transform="translate(6.449 6.69)">
              <path id="Path_3636" data-name="Path 3636" d="M998.757,151.725c45.153,18.254,90.306-18.248,135.454,0V60.474c-45.148-18.254-90.3,18.248-135.454,0Z" transform="translate(-998.757 -55.204)" fill="#04d361"/>
            </g>
          </g>
          <g id="Group_1679" data-name="Group 1679" transform="translate(35.848 33)">
            <path id="Path_3637" data-name="Path 3637" d="M1012.8,61.917a10.594,10.594,0,1,1-10.683,10.591A10.291,10.291,0,0,1,1012.8,61.917Zm0,3.866c-3.774,0-6.2,2.888-6.2,6.725,0,3.808,2.424,6.725,6.2,6.725s6.238-2.917,6.238-6.725C1019.037,68.671,1016.578,65.783,1012.8,65.783Z" transform="translate(-1002.116 -61.055)" fill="#fff"/>
            <path id="Path_3638" data-name="Path 3638" d="M1024.724,68.721c0-1.383-.614-2.367-2.211-2.367a3.944,3.944,0,0,0-3.073,1.719V78.085h-3.929V68.721c0-1.383-.614-2.367-2.212-2.367a3.984,3.984,0,0,0-3.073,1.754v9.977h-3.9V63.253h3.9v1.939a6.487,6.487,0,0,1,4.85-2.3,3.932,3.932,0,0,1,4.12,2.7,6.276,6.276,0,0,1,5.092-2.7c2.737,0,4.364,1.441,4.364,4.479V78.085h-3.929Z" transform="translate(-981.957 -56.406)" fill="#fff"/>
            <path id="Path_3639" data-name="Path 3639" d="M1020.858,69.121c0-2.06-1.071-2.766-2.732-2.766a4.236,4.236,0,0,0-3.38,1.754v9.977h-3.9V63.253h3.9v1.939a6.789,6.789,0,0,1,5.191-2.3c3.253,0,4.821,1.84,4.821,4.728V78.085h-3.9Z" transform="translate(-960.324 -56.406)" fill="#fff"/>
            <path id="Path_3640" data-name="Path 3640" d="M1013.849,64.1a2.333,2.333,0,1,1,2.333,2.338A2.352,2.352,0,0,1,1013.849,64.1Zm.394,4.514h3.9V83.447h-3.9Z" transform="translate(-945.948 -61.768)" fill="#fff"/>
            <path id="Path_3641" data-name="Path 3641" d="M1017.427,76.506a8.992,8.992,0,0,0,6.511,2.766c2.4,0,3.564-1.14,3.564-2.3,0-1.534-1.782-2.06-4.149-2.61-3.345-.77-7.644-1.69-7.644-6.267,0-3.4,2.946-6.169,7.766-6.169a11.406,11.406,0,0,1,7.986,2.853l-2.425,3.194a8.754,8.754,0,0,0-5.868-2.24c-1.962,0-3.01.862-3.01,2.089,0,1.377,1.719,1.811,4.086,2.361,3.379.77,7.674,1.782,7.674,6.325,0,3.75-2.668,6.574-8.194,6.574a11.824,11.824,0,0,1-8.692-3.258Z" transform="translate(-1014.914 -35.379)" fill="#0e6f39"/>
            <path id="Path_3642" data-name="Path 3642" d="M1020.546,77.448V69.711h-2.454V66.3h2.454V62.251h3.929V66.3h3.01v3.409h-3.01v6.7c0,.92.492,1.626,1.354,1.626a2.124,2.124,0,0,0,1.349-.428l.834,2.946a4.837,4.837,0,0,1-3.259.955C1022.021,81.5,1020.546,80.093,1020.546,77.448Z" transform="translate(-1000.261 -33.804)" fill="#0e6f39"/>
            <path id="Path_3643" data-name="Path 3643" d="M1029.867,76.551a6.14,6.14,0,0,1-4.7,1.9,4.938,4.938,0,0,1-5.156-4.913c0-3.472,2.789-4.728,5.156-4.728a5.992,5.992,0,0,1,4.7,1.811v-2.06c0-1.5-1.291-2.488-3.258-2.488a6.248,6.248,0,0,0-4.329,1.754l-1.469-2.61a9.718,9.718,0,0,1,6.475-2.332c3.38,0,6.476,1.348,6.476,5.619v9.578h-3.9Zm0-3.872a3.922,3.922,0,0,0-3.136-1.29c-1.534,0-2.789.833-2.789,2.245,0,1.377,1.256,2.176,2.789,2.176a3.9,3.9,0,0,0,3.136-1.291Z" transform="translate(-991.07 -30.754)" fill="#0e6f39"/>
            <path id="Path_3644" data-name="Path 3644" d="M1030.751,62.888a6.836,6.836,0,0,1,5.869,2.7l-2.552,2.361a3.67,3.67,0,0,0-3.131-1.6,4.325,4.325,0,0,0,0,8.629,3.741,3.741,0,0,0,3.131-1.6l2.552,2.367a6.85,6.85,0,0,1-5.869,2.7,7.784,7.784,0,1,1,0-15.567Z" transform="translate(-977.282 -30.754)" fill="#0e6f39"/>
            <path id="Path_3645" data-name="Path 3645" d="M1031.386,76.744l-1.783,1.9v3.808h-3.9V61.975h3.9V74.226l5.619-6.6h4.792l-5.869,6.725,6.054,8.108h-4.885Z" transform="translate(-963.826 -35.125)" fill="#0e6f39"/>
          </g>
        </g>
      </g>
      <path id="Path_3694" data-name="Path 3694" d="M8.363,10.341c-.019-1.7.091-6.118.091-6.118A4.168,4.168,0,1,0,.12,4.113L0,13.089,5.9,25.258A39.262,39.262,0,0,0,8.363,10.341Z" transform="translate(6575.218 1949.944)" fill="#a1c2e2"/>
    </g>
  </g>
</svg>
