<svg xmlns="http://www.w3.org/2000/svg" width="1335.495" height="706.521" viewBox="0 0 1335.495 706.521">
  <g id="Group_2118" data-name="Group 2118" transform="translate(-47.322 -79.142)" opacity="0.85">
    <path id="Path_127" data-name="Path 127" d="M133.33,113.346a2.746,2.746,0,1,0,2.746-2.746A2.748,2.748,0,0,0,133.33,113.346Z" transform="translate(529.58 60.733)" fill="#26242b"/>
    <path id="Path_3929" data-name="Path 3929" d="M133.33,113.346a2.746,2.746,0,1,0,2.746-2.746A2.748,2.748,0,0,0,133.33,113.346Z" transform="translate(529.58 621.418)" fill="#26242b"/>
    <path id="Path_128" data-name="Path 128" d="M23.64,104.416a2.746,2.746,0,1,0,2.746-2.746A2.748,2.748,0,0,0,23.64,104.416Z" transform="translate(728.399 62.407)" fill="#26242b"/>
    <path id="Path_3924" data-name="Path 3924" d="M23.64,104.416a2.746,2.746,0,1,0,2.746-2.746A2.748,2.748,0,0,0,23.64,104.416Z" transform="translate(728.399 623.092)" fill="#26242b"/>
    <ellipse id="Ellipse_3" data-name="Ellipse 3" cx="2.746" cy="2.746" rx="2.746" ry="2.746" transform="translate(346.509 100.86)" fill="#26242b"/>
    <ellipse id="Ellipse_125" data-name="Ellipse 125" cx="2.746" cy="2.746" rx="2.746" ry="2.746" transform="translate(346.509 661.545)" fill="#26242b"/>
    <ellipse id="Ellipse_121" data-name="Ellipse 121" cx="2.746" cy="2.746" rx="2.746" ry="2.746" transform="translate(1261.833 248.573)" fill="#322f39"/>
    <ellipse id="Ellipse_116" data-name="Ellipse 116" cx="2.746" cy="2.746" rx="2.746" ry="2.746" transform="translate(1245.996 100.86)" fill="#322f39"/>
    <ellipse id="Ellipse_131" data-name="Ellipse 131" cx="2.746" cy="2.746" rx="2.746" ry="2.746" transform="translate(1245.996 661.545)" fill="#322f39"/>
    <ellipse id="Ellipse_114" data-name="Ellipse 114" cx="2.746" cy="2.746" rx="2.746" ry="2.746" transform="translate(911.855 100.86)" fill="#26242b"/>
    <ellipse id="Ellipse_129" data-name="Ellipse 129" cx="2.746" cy="2.746" rx="2.746" ry="2.746" transform="translate(911.855 661.545)" fill="#26242b"/>
    <path id="Path_129" data-name="Path 129" d="M39.14,172.606a2.746,2.746,0,1,0,2.746-2.746A2.748,2.748,0,0,0,39.14,172.606Z" transform="translate(700.305 49.625)" fill="#26242b"/>
    <path id="Path_3945" data-name="Path 3945" d="M39.14,172.606a2.746,2.746,0,1,0,2.746-2.746A2.748,2.748,0,0,0,39.14,172.606Z" transform="translate(700.305 610.31)" fill="#26242b"/>
    <path id="Path_130" data-name="Path 130" d="M304.64,181.646a2.746,2.746,0,1,0,2.746-2.746A2.748,2.748,0,0,0,304.64,181.646Z" transform="translate(172.937 47.93)" fill="#26242b"/>
    <path id="Path_3901" data-name="Path 3901" d="M304.64,181.646a2.746,2.746,0,1,0,2.746-2.746A2.748,2.748,0,0,0,304.64,181.646Z" transform="translate(-176.581 166.517)" fill="#322f39"/>
    <path id="Path_3867" data-name="Path 3867" d="M304.64,181.646a2.746,2.746,0,1,0,2.746-2.746A2.748,2.748,0,0,0,304.64,181.646Z" transform="translate(738.283 47.93)" fill="#26242b"/>
    <path id="Path_131" data-name="Path 131" d="M711.09,118.426a2.746,2.746,0,1,0,2.746-2.746A2.748,2.748,0,0,0,711.09,118.426Z" transform="translate(-631.906 59.78)" fill="#433f4d"/>
    <path id="Path_3931" data-name="Path 3931" d="M711.09,118.426a2.746,2.746,0,1,0,2.746-2.746A2.748,2.748,0,0,0,711.09,118.426Z" transform="translate(-631.906 620.466)" fill="#433f4d"/>
    <path id="Path_132" data-name="Path 132" d="M412.22,200.886a2.746,2.746,0,1,0,2.746-2.746A2.748,2.748,0,0,0,412.22,200.886Z" transform="translate(-39.72 44.324)" fill="#26242b"/>
    <path id="Path_3857" data-name="Path 3857" d="M412.22,200.886a2.746,2.746,0,1,0,2.746-2.746A2.748,2.748,0,0,0,412.22,200.886Z" transform="translate(525.626 44.324)" fill="#26242b"/>
    <path id="Path_133" data-name="Path 133" d="M402.96,298.026a2.746,2.746,0,1,0,2.746-2.746A2.748,2.748,0,0,0,402.96,298.026Z" transform="translate(-21.416 26.115)" fill="#26242b"/>
    <path id="Path_3870" data-name="Path 3870" d="M402.96,298.026a2.746,2.746,0,1,0,2.746-2.746A2.748,2.748,0,0,0,402.96,298.026Z" transform="translate(398.785 26.115)" fill="#26242b"/>
    <path id="Path_134" data-name="Path 134" d="M405.96,107.806a2.746,2.746,0,1,0,2.746-2.746A2.748,2.748,0,0,0,405.96,107.806Z" transform="translate(-27.346 61.771)" fill="#26242b"/>
    <path id="Path_3926" data-name="Path 3926" d="M405.96,107.806a2.746,2.746,0,1,0,2.746-2.746A2.748,2.748,0,0,0,405.96,107.806Z" transform="translate(-27.346 622.457)" fill="#26242b"/>
    <path id="Path_3905" data-name="Path 3905" d="M405.96,107.806a2.746,2.746,0,1,0,2.746-2.746A2.748,2.748,0,0,0,405.96,107.806Z" transform="translate(887.978 209.484)" fill="#322f39"/>
    <path id="Path_3877" data-name="Path 3877" d="M405.96,107.806a2.746,2.746,0,1,0,2.746-2.746A2.748,2.748,0,0,0,405.96,107.806Z" transform="translate(872.141 61.771)" fill="#322f39"/>
    <path id="Path_3941" data-name="Path 3941" d="M405.96,107.806a2.746,2.746,0,1,0,2.746-2.746A2.748,2.748,0,0,0,405.96,107.806Z" transform="translate(872.141 622.457)" fill="#322f39"/>
    <path id="Path_3858" data-name="Path 3858" d="M405.96,107.806a2.746,2.746,0,1,0,2.746-2.746A2.748,2.748,0,0,0,405.96,107.806Z" transform="translate(538 61.771)" fill="#26242b"/>
    <path id="Path_3932" data-name="Path 3932" d="M405.96,107.806a2.746,2.746,0,1,0,2.746-2.746A2.748,2.748,0,0,0,405.96,107.806Z" transform="translate(538 622.457)" fill="#26242b"/>
    <path id="Path_135" data-name="Path 135" d="M541.14,176.056a2.746,2.746,0,1,0,2.746-2.746A2.748,2.748,0,0,0,541.14,176.056Z" transform="translate(-294.561 48.978)" fill="#26242b"/>
    <path id="Path_3880" data-name="Path 3880" d="M541.14,176.056a2.746,2.746,0,1,0,2.746-2.746A2.748,2.748,0,0,0,541.14,176.056Z" transform="translate(602.926 48.978)" fill="#26242b"/>
    <path id="Path_3859" data-name="Path 3859" d="M541.14,176.056a2.746,2.746,0,1,0,2.746-2.746A2.748,2.748,0,0,0,541.14,176.056Z" transform="translate(270.785 48.978)" fill="#26242b"/>
    <path id="Path_136" data-name="Path 136" d="M521.34,237.816a2.746,2.746,0,1,0,2.747-2.746A2.748,2.748,0,0,0,521.34,237.816Z" transform="translate(-255.422 37.401)" fill="#26242b"/>
    <path id="Path_3884" data-name="Path 3884" d="M521.34,237.816a2.746,2.746,0,1,0,2.747-2.746A2.748,2.748,0,0,0,521.34,237.816Z" transform="translate(642.065 37.401)" fill="#26242b"/>
    <path id="Path_3862" data-name="Path 3862" d="M521.34,237.816a2.746,2.746,0,1,0,2.747-2.746A2.748,2.748,0,0,0,521.34,237.816Z" transform="translate(309.925 37.401)" fill="#26242b"/>
    <path id="Path_137" data-name="Path 137" d="M256.78,92.473a1.373,1.373,0,1,0,1.373-1.373A1.377,1.377,0,0,0,256.78,92.473Z" transform="translate(270.475 64.388)" fill="#26242b"/>
    <path id="Path_3921" data-name="Path 3921" d="M256.78,92.473a1.373,1.373,0,1,0,1.373-1.373A1.377,1.377,0,0,0,256.78,92.473Z" transform="translate(270.475 625.073)" fill="#26242b"/>
    <path id="Path_3872" data-name="Path 3872" d="M256.78,92.473a1.373,1.373,0,1,0,1.373-1.373A1.377,1.377,0,0,0,256.78,92.473Z" transform="translate(835.821 64.388)" fill="#26242b"/>
    <path id="Path_3937" data-name="Path 3937" d="M256.78,92.473a1.373,1.373,0,1,0,1.373-1.373A1.377,1.377,0,0,0,256.78,92.473Z" transform="translate(835.821 625.073)" fill="#26242b"/>
    <path id="Path_138" data-name="Path 138" d="M353.85,48.863a1.373,1.373,0,1,0,1.373-1.373A1.377,1.377,0,0,0,353.85,48.863Z" transform="translate(78.67 72.562)" fill="#26242b"/>
    <path id="Path_3911" data-name="Path 3911" d="M353.85,48.863a1.373,1.373,0,1,0,1.373-1.373A1.377,1.377,0,0,0,353.85,48.863Z" transform="translate(78.67 633.248)" fill="#26242b"/>
    <path id="Path_3906" data-name="Path 3906" d="M353.85,48.863a1.373,1.373,0,1,0,1.373-1.373A1.377,1.377,0,0,0,353.85,48.863Z" transform="translate(1006.994 220.275)" fill="#433f4d"/>
    <path id="Path_3899" data-name="Path 3899" d="M353.85,48.863a1.373,1.373,0,1,0,1.373-1.373A1.377,1.377,0,0,0,353.85,48.863Z" transform="translate(-280.848 191.149)" fill="#433f4d"/>
    <path id="Path_3878" data-name="Path 3878" d="M353.85,48.863a1.373,1.373,0,1,0,1.373-1.373A1.377,1.377,0,0,0,353.85,48.863Z" transform="translate(991.157 72.562)" fill="#433f4d"/>
    <path id="Path_3942" data-name="Path 3942" d="M353.85,48.863a1.373,1.373,0,1,0,1.373-1.373A1.377,1.377,0,0,0,353.85,48.863Z" transform="translate(991.157 633.248)" fill="#433f4d"/>
    <path id="Path_3863" data-name="Path 3863" d="M353.85,48.863a1.373,1.373,0,1,0,1.373-1.373A1.377,1.377,0,0,0,353.85,48.863Z" transform="translate(644.017 72.562)" fill="#26242b"/>
    <path id="Path_3934" data-name="Path 3934" d="M353.85,48.863a1.373,1.373,0,1,0,1.373-1.373A1.377,1.377,0,0,0,353.85,48.863Z" transform="translate(644.017 633.248)" fill="#26242b"/>
    <path id="Path_139" data-name="Path 139" d="M350.53,256.683a1.373,1.373,0,1,0,1.373-1.373A1.377,1.377,0,0,0,350.53,256.683Z" transform="translate(85.23 33.607)" fill="#26242b"/>
    <path id="Path_3864" data-name="Path 3864" d="M350.53,256.683a1.373,1.373,0,1,0,1.373-1.373A1.377,1.377,0,0,0,350.53,256.683Z" transform="translate(650.577 33.607)" fill="#26242b"/>
    <path id="Path_140" data-name="Path 140" d="M388.69,185.353a1.373,1.373,0,1,0,1.373-1.373A1.377,1.377,0,0,0,388.69,185.353Z" transform="translate(9.828 46.978)" fill="#26242b"/>
    <path id="Path_3902" data-name="Path 3902" d="M388.69,185.353a1.373,1.373,0,1,0,1.373-1.373A1.377,1.377,0,0,0,388.69,185.353Z" transform="translate(-339.69 165.564)" fill="#433f4d"/>
    <path id="Path_3860" data-name="Path 3860" d="M388.69,185.353a1.373,1.373,0,1,0,1.373-1.373A1.377,1.377,0,0,0,388.69,185.353Z" transform="translate(575.175 46.978)" fill="#26242b"/>
    <path id="Path_141" data-name="Path 141" d="M369.64,290.343a1.373,1.373,0,1,0,1.373-1.373A1.377,1.377,0,0,0,369.64,290.343Z" transform="translate(47.47 27.298)" fill="#26242b"/>
    <path id="Path_3868" data-name="Path 3868" d="M369.64,290.343a1.373,1.373,0,1,0,1.373-1.373A1.377,1.377,0,0,0,369.64,290.343Z" transform="translate(612.817 27.298)" fill="#26242b"/>
    <path id="Path_142" data-name="Path 142" d="M485.71,258.373A1.373,1.373,0,1,0,487.083,257,1.377,1.377,0,0,0,485.71,258.373Z" transform="translate(-181.878 33.291)" fill="#26242b"/>
    <path id="Path_3886" data-name="Path 3886" d="M485.71,258.373A1.373,1.373,0,1,0,487.083,257,1.377,1.377,0,0,0,485.71,258.373Z" transform="translate(715.61 33.291)" fill="#322f39"/>
    <path id="Path_3865" data-name="Path 3865" d="M485.71,258.373A1.373,1.373,0,1,0,487.083,257,1.377,1.377,0,0,0,485.71,258.373Z" transform="translate(238.323 33.291)" fill="#26242b"/>
    <path id="Path_143" data-name="Path 143" d="M255.09,252.223a1.373,1.373,0,1,0,1.373-1.373A1.377,1.377,0,0,0,255.09,252.223Z" transform="translate(273.814 34.443)" fill="#26242b"/>
    <path id="Path_3873" data-name="Path 3873" d="M255.09,252.223a1.373,1.373,0,1,0,1.373-1.373A1.377,1.377,0,0,0,255.09,252.223Z" transform="translate(839.161 34.443)" fill="#26242b"/>
    <path id="Path_144" data-name="Path 144" d="M108.75,56.283a1.373,1.373,0,1,0,1.373-1.373A1.377,1.377,0,0,0,108.75,56.283Z" transform="translate(576.879 71.172)" fill="#26242b"/>
    <path id="Path_3918" data-name="Path 3918" d="M108.75,56.283a1.373,1.373,0,1,0,1.373-1.373A1.377,1.377,0,0,0,108.75,56.283Z" transform="translate(576.879 631.857)" fill="#26242b"/>
    <path id="Path_145" data-name="Path 145" d="M67.11,111.5a1.373,1.373,0,1,0,1.373-1.373A1.377,1.377,0,0,0,67.11,111.5Z" transform="translate(652.354 60.821)" fill="#26242b"/>
    <path id="Path_3930" data-name="Path 3930" d="M67.11,111.5a1.373,1.373,0,1,0,1.373-1.373A1.377,1.377,0,0,0,67.11,111.5Z" transform="translate(652.354 621.506)" fill="#26242b"/>
    <path id="Path_146" data-name="Path 146" d="M40.4,249.683a1.373,1.373,0,1,0,1.373-1.373A1.377,1.377,0,0,0,40.4,249.683Z" transform="translate(555.621 34.919)" fill="#26242b"/>
    <path id="Path_147" data-name="Path 147" d="M186.27,27.931c0,.382.618.691,1.373.691s1.373-.309,1.373-.691-.618-.691-1.373-.691S186.27,27.557,186.27,27.931Z" transform="translate(409.799 76.358)" fill="#26242b"/>
    <path id="Path_3916" data-name="Path 3916" d="M186.27,27.931c0,.382.618.691,1.373.691s1.373-.309,1.373-.691-.618-.691-1.373-.691S186.27,27.557,186.27,27.931Z" transform="translate(409.799 637.044)" fill="#26242b"/>
    <path id="Path_148" data-name="Path 148" d="M157.4,266.373A1.373,1.373,0,1,0,158.773,265,1.377,1.377,0,0,0,157.4,266.373Z" transform="translate(488.699 31.791)" fill="#26242b"/>
    <path id="Path_149" data-name="Path 149" d="M120.86,176.3a1.373,1.373,0,1,0,1.373-1.373A1.377,1.377,0,0,0,120.86,176.3Z" transform="translate(554.929 48.674)" fill="#26242b"/>
    <path id="Path_150" data-name="Path 150" d="M191.99,236.726a2.746,2.746,0,1,0,2.746-2.746A2.748,2.748,0,0,0,191.99,236.726Z" transform="translate(395.616 37.606)" fill="#26242b"/>
    <ellipse id="Ellipse_4" data-name="Ellipse 4" cx="2.746" cy="2.746" rx="2.746" ry="2.746" transform="translate(566.391 213.984)" fill="#26242b"/>
    <ellipse id="Ellipse_135" data-name="Ellipse 135" cx="2.746" cy="2.746" rx="2.746" ry="2.746" transform="translate(566.391 774.669)" fill="#26242b"/>
    <path id="Path_151" data-name="Path 151" d="M719.61,29.446a2.746,2.746,0,1,0,2.746-2.746A2.748,2.748,0,0,0,719.61,29.446Z" transform="translate(-647.349 76.459)" fill="#433f4d"/>
    <path id="Path_3912" data-name="Path 3912" d="M719.61,29.446a2.746,2.746,0,1,0,2.746-2.746A2.748,2.748,0,0,0,719.61,29.446Z" transform="translate(-647.349 637.145)" fill="#433f4d"/>
    <path id="Path_153" data-name="Path 153" d="M466.73,75.993A1.373,1.373,0,1,0,468.1,74.62,1.377,1.377,0,0,0,466.73,75.993Z" transform="translate(-144.374 67.477)" fill="#26242b"/>
    <path id="Path_3919" data-name="Path 3919" d="M466.73,75.993A1.373,1.373,0,1,0,468.1,74.62,1.377,1.377,0,0,0,466.73,75.993Z" transform="translate(-144.374 628.162)" fill="#26242b"/>
    <path id="Path_3904" data-name="Path 3904" d="M466.73,75.993A1.373,1.373,0,1,0,468.1,74.62,1.377,1.377,0,0,0,466.73,75.993Z" transform="translate(770.95 215.19)" fill="#322f39"/>
    <path id="Path_3876" data-name="Path 3876" d="M466.73,75.993A1.373,1.373,0,1,0,468.1,74.62,1.377,1.377,0,0,0,466.73,75.993Z" transform="translate(755.113 67.477)" fill="#322f39"/>
    <path id="Path_3940" data-name="Path 3940" d="M466.73,75.993A1.373,1.373,0,1,0,468.1,74.62,1.377,1.377,0,0,0,466.73,75.993Z" transform="translate(755.113 628.162)" fill="#322f39"/>
    <path id="Path_3861" data-name="Path 3861" d="M466.73,75.993A1.373,1.373,0,1,0,468.1,74.62,1.377,1.377,0,0,0,466.73,75.993Z" transform="translate(420.972 67.477)" fill="#26242b"/>
    <path id="Path_3928" data-name="Path 3928" d="M466.73,75.993A1.373,1.373,0,1,0,468.1,74.62,1.377,1.377,0,0,0,466.73,75.993Z" transform="translate(420.972 628.162)" fill="#26242b"/>
    <path id="Path_154" data-name="Path 154" d="M649.83,45.483A1.373,1.373,0,1,0,651.2,44.11,1.377,1.377,0,0,0,649.83,45.483Z" transform="translate(-518.123 73.196)" fill="#322f39"/>
    <path id="Path_3913" data-name="Path 3913" d="M649.83,45.483A1.373,1.373,0,1,0,651.2,44.11,1.377,1.377,0,0,0,649.83,45.483Z" transform="translate(-518.123 633.881)" fill="#322f39"/>
    <ellipse id="Ellipse_5" data-name="Ellipse 5" cx="2.746" cy="2.746" rx="2.746" ry="2.746" transform="translate(146.155 90.305)" fill="#322f39"/>
    <ellipse id="Ellipse_124" data-name="Ellipse 124" cx="2.746" cy="2.746" rx="2.746" ry="2.746" transform="translate(136.155 650.99)" fill="#322f39"/>
    <ellipse id="Ellipse_7" data-name="Ellipse 7" cx="1.373" cy="1.373" rx="1.373" ry="1.373" transform="translate(285.172 188.169)" fill="#26242b"/>
    <ellipse id="Ellipse_132" data-name="Ellipse 132" cx="1.373" cy="1.373" rx="1.373" ry="1.373" transform="translate(285.172 748.854)" fill="#26242b"/>
    <ellipse id="Ellipse_122" data-name="Ellipse 122" cx="1.373" cy="1.373" rx="1.373" ry="1.373" transform="translate(1198.497 335.882)" fill="#322f39"/>
    <ellipse id="Ellipse_118" data-name="Ellipse 118" cx="1.373" cy="1.373" rx="1.373" ry="1.373" transform="translate(1182.66 188.169)" fill="#322f39"/>
    <ellipse id="Ellipse_133" data-name="Ellipse 133" cx="1.373" cy="1.373" rx="1.373" ry="1.373" transform="translate(1182.66 748.854)" fill="#322f39"/>
    <ellipse id="Ellipse_115" data-name="Ellipse 115" cx="1.373" cy="1.373" rx="1.373" ry="1.373" transform="translate(850.519 188.169)" fill="#26242b"/>
    <ellipse id="Ellipse_134" data-name="Ellipse 134" cx="1.373" cy="1.373" rx="1.373" ry="1.373" transform="translate(850.519 748.854)" fill="#26242b"/>
    <path id="Path_155" data-name="Path 155" d="M463.886,290.343a1.373,1.373,0,1,0-1.373,1.373A1.377,1.377,0,0,0,463.886,290.343Z" transform="translate(-133.329 27.298)" fill="#26242b"/>
    <path id="Path_3869" data-name="Path 3869" d="M463.886,290.343a1.373,1.373,0,1,0-1.373,1.373A1.377,1.377,0,0,0,463.886,290.343Z" transform="translate(286.872 27.298)" fill="#26242b"/>
    <path id="Path_156" data-name="Path 156" d="M336.9,117.053a1.373,1.373,0,1,0-1.373,1.373A1.377,1.377,0,0,0,336.9,117.053Z" transform="translate(117.596 59.78)" fill="#26242b"/>
    <path id="Path_3933" data-name="Path 3933" d="M336.9,117.053a1.373,1.373,0,1,0-1.373,1.373A1.377,1.377,0,0,0,336.9,117.053Z" transform="translate(117.596 620.466)" fill="#26242b"/>
    <path id="Path_3907" data-name="Path 3907" d="M336.9,117.053a1.373,1.373,0,1,0-1.373,1.373A1.377,1.377,0,0,0,336.9,117.053Z" transform="translate(1045.921 207.493)" fill="#433f4d"/>
    <path id="Path_3900" data-name="Path 3900" d="M336.9,117.053a1.373,1.373,0,1,0-1.373,1.373A1.377,1.377,0,0,0,336.9,117.053Z" transform="translate(-231.922 178.367)" fill="#433f4d"/>
    <path id="Path_3879" data-name="Path 3879" d="M336.9,117.053a1.373,1.373,0,1,0-1.373,1.373A1.377,1.377,0,0,0,336.9,117.053Z" transform="translate(1030.083 59.78)" fill="#433f4d"/>
    <path id="Path_3943" data-name="Path 3943" d="M336.9,117.053a1.373,1.373,0,1,0-1.373,1.373A1.377,1.377,0,0,0,336.9,117.053Z" transform="translate(1030.083 620.466)" fill="#433f4d"/>
    <path id="Path_3866" data-name="Path 3866" d="M336.9,117.053a1.373,1.373,0,1,0-1.373,1.373A1.377,1.377,0,0,0,336.9,117.053Z" transform="translate(682.943 59.78)" fill="#26242b"/>
    <path id="Path_3935" data-name="Path 3935" d="M336.9,117.053a1.373,1.373,0,1,0-1.373,1.373A1.377,1.377,0,0,0,336.9,117.053Z" transform="translate(682.943 620.466)" fill="#26242b"/>
    <path id="Path_158" data-name="Path 158" d="M61.656,17.333a1.373,1.373,0,1,0-1.373,1.373A1.377,1.377,0,0,0,61.656,17.333Z" transform="translate(667.217 78.473)" fill="#26242b"/>
    <path id="Path_3920" data-name="Path 3920" d="M61.656,17.333a1.373,1.373,0,1,0-1.373,1.373A1.377,1.377,0,0,0,61.656,17.333Z" transform="translate(667.217 639.158)" fill="#26242b"/>
    <path id="Path_159" data-name="Path 159" d="M571.2,23.543a1.373,1.373,0,1,0-1.373,1.373A1.377,1.377,0,0,0,571.2,23.543Z" transform="translate(-345.367 77.309)" fill="#26242b"/>
    <path id="Path_3910" data-name="Path 3910" d="M571.2,23.543a1.373,1.373,0,1,0-1.373,1.373A1.377,1.377,0,0,0,571.2,23.543Z" transform="translate(-345.367 637.994)" fill="#26242b"/>
    <path id="Path_3874" data-name="Path 3874" d="M571.2,23.543a1.373,1.373,0,1,0-1.373,1.373A1.377,1.377,0,0,0,571.2,23.543Z" transform="translate(552.12 77.309)" fill="#26242b"/>
    <path id="Path_3938" data-name="Path 3938" d="M571.2,23.543a1.373,1.373,0,1,0-1.373,1.373A1.377,1.377,0,0,0,571.2,23.543Z" transform="translate(552.12 637.994)" fill="#26242b"/>
    <path id="Path_3855" data-name="Path 3855" d="M571.2,23.543a1.373,1.373,0,1,0-1.373,1.373A1.377,1.377,0,0,0,571.2,23.543Z" transform="translate(219.98 77.309)" fill="#26242b"/>
    <path id="Path_3923" data-name="Path 3923" d="M571.2,23.543a1.373,1.373,0,1,0-1.373,1.373A1.377,1.377,0,0,0,571.2,23.543Z" transform="translate(219.98 637.994)" fill="#26242b"/>
    <ellipse id="Ellipse_8" data-name="Ellipse 8" cx="1.373" cy="1.373" rx="1.373" ry="1.373" transform="translate(285.172 115.933)" fill="#26242b"/>
    <ellipse id="Ellipse_126" data-name="Ellipse 126" cx="1.373" cy="1.373" rx="1.373" ry="1.373" transform="translate(285.172 676.618)" fill="#26242b"/>
    <ellipse id="Ellipse_120" data-name="Ellipse 120" cx="1.373" cy="1.373" rx="1.373" ry="1.373" transform="translate(1198.497 263.646)" fill="#322f39"/>
    <ellipse id="Ellipse_117" data-name="Ellipse 117" cx="1.373" cy="1.373" rx="1.373" ry="1.373" transform="translate(1182.66 115.933)" fill="#322f39"/>
    <ellipse id="Ellipse_130" data-name="Ellipse 130" cx="1.373" cy="1.373" rx="1.373" ry="1.373" transform="translate(1182.66 676.618)" fill="#322f39"/>
    <ellipse id="Ellipse_113" data-name="Ellipse 113" cx="1.373" cy="1.373" rx="1.373" ry="1.373" transform="translate(850.519 115.933)" fill="#26242b"/>
    <ellipse id="Ellipse_128" data-name="Ellipse 128" cx="1.373" cy="1.373" rx="1.373" ry="1.373" transform="translate(850.519 676.618)" fill="#26242b"/>
    <path id="Path_160" data-name="Path 160" d="M720.656,94.163a1.373,1.373,0,1,0-1.373,1.373A1.377,1.377,0,0,0,720.656,94.163Z" transform="translate(-641.521 64.071)" fill="#433f4d"/>
    <path id="Path_3922" data-name="Path 3922" d="M720.656,94.163a1.373,1.373,0,1,0-1.373,1.373A1.377,1.377,0,0,0,720.656,94.163Z" transform="translate(-641.521 624.757)" fill="#433f4d"/>
    <path id="Path_161" data-name="Path 161" d="M550.013,58.706a2.746,2.746,0,1,0-2.746,2.746A2.748,2.748,0,0,0,550.013,58.706Z" transform="translate(-301.242 70.975)" fill="#26242b"/>
    <path id="Path_3915" data-name="Path 3915" d="M550.013,58.706a2.746,2.746,0,1,0-2.746,2.746A2.748,2.748,0,0,0,550.013,58.706Z" transform="translate(-301.242 631.66)" fill="#26242b"/>
    <path id="Path_3875" data-name="Path 3875" d="M550.013,58.706a2.746,2.746,0,1,0-2.746,2.746A2.748,2.748,0,0,0,550.013,58.706Z" transform="translate(596.245 70.975)" fill="#26242b"/>
    <path id="Path_3939" data-name="Path 3939" d="M550.013,58.706a2.746,2.746,0,1,0-2.746,2.746A2.748,2.748,0,0,0,550.013,58.706Z" transform="translate(596.245 631.66)" fill="#26242b"/>
    <path id="Path_3856" data-name="Path 3856" d="M550.013,58.706a2.746,2.746,0,1,0-2.746,2.746A2.748,2.748,0,0,0,550.013,58.706Z" transform="translate(264.104 70.975)" fill="#26242b"/>
    <path id="Path_3925" data-name="Path 3925" d="M550.013,58.706a2.746,2.746,0,1,0-2.746,2.746A2.748,2.748,0,0,0,550.013,58.706Z" transform="translate(264.104 631.66)" fill="#26242b"/>
    <path id="Path_162" data-name="Path 162" d="M279.43,24.926a2.746,2.746,0,1,0,2.747-2.746A2.748,2.748,0,0,0,279.43,24.926Z" transform="translate(222.77 77.307)" fill="#26242b"/>
    <path id="Path_3914" data-name="Path 3914" d="M279.43,24.926a2.746,2.746,0,1,0,2.747-2.746A2.748,2.748,0,0,0,279.43,24.926Z" transform="translate(222.77 637.992)" fill="#26242b"/>
    <path id="Path_3903" data-name="Path 3903" d="M279.43,24.926a2.746,2.746,0,1,0,2.747-2.746A2.748,2.748,0,0,0,279.43,24.926Z" transform="translate(-136.748 195.893)" fill="#322f39"/>
    <path id="Path_3944" data-name="Path 3944" d="M279.43,24.926a2.746,2.746,0,1,0,2.747-2.746A2.748,2.748,0,0,0,279.43,24.926Z" transform="translate(-126.748 756.579)" fill="#322f39"/>
    <path id="Path_3871" data-name="Path 3871" d="M279.43,24.926a2.746,2.746,0,1,0,2.747-2.746A2.748,2.748,0,0,0,279.43,24.926Z" transform="translate(788.117 77.307)" fill="#26242b"/>
    <path id="Path_3936" data-name="Path 3936" d="M279.43,24.926a2.746,2.746,0,1,0,2.747-2.746A2.748,2.748,0,0,0,279.43,24.926Z" transform="translate(788.117 637.992)" fill="#26242b"/>
    <ellipse id="Ellipse_9" data-name="Ellipse 9" cx="2.746" cy="2.746" rx="2.746" ry="2.746" transform="translate(740.68 105.906)" fill="#26242b"/>
    <ellipse id="Ellipse_127" data-name="Ellipse 127" cx="2.746" cy="2.746" rx="2.746" ry="2.746" transform="translate(740.68 666.591)" fill="#26242b"/>
    <path id="Path_3895" data-name="Path 3895" d="M521.34,237.816a2.746,2.746,0,1,0,2.747-2.746A2.748,2.748,0,0,0,521.34,237.816Z" transform="translate(356.735 -155.042)" fill="#26242b"/>
    <path id="Path_3927" data-name="Path 3927" d="M521.34,237.816a2.746,2.746,0,1,0,2.747-2.746A2.748,2.748,0,0,0,521.34,237.816Z" transform="translate(356.735 405.644)" fill="#26242b"/>
    <path id="Path_3898" data-name="Path 3898" d="M191.99,236.726a2.746,2.746,0,1,0,2.746-2.746A2.748,2.748,0,0,0,191.99,236.726Z" transform="translate(442.427 -154.838)" fill="#26242b"/>
    <path id="Path_3917" data-name="Path 3917" d="M191.99,236.726a2.746,2.746,0,1,0,2.746-2.746A2.748,2.748,0,0,0,191.99,236.726Z" transform="translate(442.427 405.848)" fill="#26242b"/>
    <path id="Path_127-2" data-name="Path 127" d="M138.823,113.346a2.746,2.746,0,1,1-2.746-2.746A2.748,2.748,0,0,1,138.823,113.346Z" transform="translate(607.568 358.239)" fill="#26242b"/>
    <path id="Path_128-2" data-name="Path 128" d="M29.133,104.416a2.746,2.746,0,1,1-2.746-2.746A2.748,2.748,0,0,1,29.133,104.416Z" transform="translate(628.129 359.913)" fill="#26242b"/>
    <ellipse id="Ellipse_3-2" data-name="Ellipse 3" cx="2.746" cy="2.746" rx="2.746" ry="2.746" transform="translate(1078.105 387.964)" fill="#26242b"/>
    <ellipse id="Ellipse_116-2" data-name="Ellipse 116" cx="2.746" cy="2.746" rx="2.746" ry="2.746" transform="translate(149.813 398.366)" fill="#322f39"/>
    <ellipse id="Ellipse_114-2" data-name="Ellipse 114" cx="2.746" cy="2.746" rx="2.746" ry="2.746" transform="translate(491.954 398.366)" fill="#26242b"/>
    <path id="Path_129-2" data-name="Path 129" d="M44.633,172.606a2.746,2.746,0,1,1-2.746-2.746A2.748,2.748,0,0,1,44.633,172.606Z" transform="translate(625.224 347.131)" fill="#26242b"/>
    <path id="Path_130-2" data-name="Path 130" d="M310.133,181.646a2.746,2.746,0,1,1-2.746-2.746A2.748,2.748,0,0,1,310.133,181.646Z" transform="translate(621.592 345.437)" fill="#26242b"/>
    <path id="Path_3867-2" data-name="Path 3867" d="M310.133,181.646a2.746,2.746,0,1,1-2.746-2.746A2.748,2.748,0,0,1,310.133,181.646Z" transform="translate(56.245 345.437)" fill="#26242b"/>
    <path id="Path_131-2" data-name="Path 131" d="M716.583,118.426a2.746,2.746,0,1,1-2.746-2.746A2.748,2.748,0,0,1,716.583,118.426Z" transform="translate(628.535 357.287)" fill="#433f4d"/>
    <path id="Path_132-2" data-name="Path 132" d="M417.713,200.886a2.746,2.746,0,1,1-2.746-2.746A2.748,2.748,0,0,1,417.713,200.886Z" transform="translate(619.089 341.83)" fill="#26242b"/>
    <path id="Path_3857-2" data-name="Path 3857" d="M417.713,200.886a2.746,2.746,0,1,1-2.746-2.746A2.748,2.748,0,0,1,417.713,200.886Z" transform="translate(53.743 341.83)" fill="#26242b"/>
    <path id="Path_134-2" data-name="Path 134" d="M411.453,107.806a2.746,2.746,0,1,1-2.746-2.746A2.748,2.748,0,0,1,411.453,107.806Z" transform="translate(640.039 348.875)" fill="#26242b"/>
    <path id="Path_3877-2" data-name="Path 3877" d="M411.453,107.806a2.746,2.746,0,1,1-2.746-2.746A2.748,2.748,0,0,1,411.453,107.806Z" transform="translate(-288.252 359.278)" fill="#322f39"/>
    <path id="Path_3858-2" data-name="Path 3858" d="M411.453,107.806a2.746,2.746,0,1,1-2.746-2.746A2.748,2.748,0,0,1,411.453,107.806Z" transform="translate(53.888 359.278)" fill="#26242b"/>
    <path id="Path_135-2" data-name="Path 135" d="M546.633,176.056a2.746,2.746,0,1,1-2.746-2.746A2.748,2.748,0,0,1,546.633,176.056Z" transform="translate(616.09 346.484)" fill="#26242b"/>
    <path id="Path_3880-2" data-name="Path 3880" d="M546.633,176.056a2.746,2.746,0,1,1-2.746-2.746A2.748,2.748,0,0,1,546.633,176.056Z" transform="translate(-281.397 346.484)" fill="#26242b"/>
    <path id="Path_3908" data-name="Path 3908" d="M546.633,176.056a2.746,2.746,0,1,1-2.746-2.746A2.748,2.748,0,0,1,546.633,176.056Z" transform="translate(-406.863 420.341)" fill="#322f39"/>
    <path id="Path_3859-2" data-name="Path 3859" d="M546.633,176.056a2.746,2.746,0,1,1-2.746-2.746A2.748,2.748,0,0,1,546.633,176.056Z" transform="translate(50.744 346.484)" fill="#26242b"/>
    <path id="Path_136-2" data-name="Path 136" d="M526.833,237.816a2.746,2.746,0,1,1-2.747-2.746A2.748,2.748,0,0,1,526.833,237.816Z" transform="translate(616.551 334.908)" fill="#26242b"/>
    <path id="Path_3884-2" data-name="Path 3884" d="M526.833,237.816a2.746,2.746,0,1,1-2.747-2.746A2.748,2.748,0,0,1,526.833,237.816Z" transform="translate(-280.937 334.908)" fill="#26242b"/>
    <path id="Path_3862-2" data-name="Path 3862" d="M526.833,237.816a2.746,2.746,0,1,1-2.747-2.746A2.748,2.748,0,0,1,526.833,237.816Z" transform="translate(51.204 334.908)" fill="#26242b"/>
    <path id="Path_137-2" data-name="Path 137" d="M259.526,92.473a1.373,1.373,0,1,1-1.373-1.373A1.377,1.377,0,0,1,259.526,92.473Z" transform="translate(622.521 361.894)" fill="#26242b"/>
    <path id="Path_3872-2" data-name="Path 3872" d="M259.526,92.473a1.373,1.373,0,1,1-1.373-1.373A1.377,1.377,0,0,1,259.526,92.473Z" transform="translate(57.174 361.894)" fill="#26242b"/>
    <path id="Path_138-2" data-name="Path 138" d="M356.6,48.863a1.373,1.373,0,1,1-1.373-1.373A1.377,1.377,0,0,1,356.6,48.863Z" transform="translate(620.185 370.069)" fill="#26242b"/>
    <path id="Path_3899-2" data-name="Path 3899" d="M356.6,48.863a1.373,1.373,0,1,1-1.373-1.373A1.377,1.377,0,0,1,356.6,48.863Z" transform="translate(971.703 488.655)" fill="#433f4d"/>
    <path id="Path_3878-2" data-name="Path 3878" d="M356.6,48.863a1.373,1.373,0,1,1-1.373-1.373A1.377,1.377,0,0,1,356.6,48.863Z" transform="translate(-287.302 370.069)" fill="#433f4d"/>
    <path id="Path_3863-2" data-name="Path 3863" d="M356.6,48.863a1.373,1.373,0,1,1-1.373-1.373A1.377,1.377,0,0,1,356.6,48.863Z" transform="translate(54.839 370.069)" fill="#26242b"/>
    <path id="Path_139-2" data-name="Path 139" d="M353.276,256.683a1.373,1.373,0,1,1-1.373-1.373A1.377,1.377,0,0,1,353.276,256.683Z" transform="translate(620.265 331.114)" fill="#26242b"/>
    <path id="Path_3864-2" data-name="Path 3864" d="M353.276,256.683a1.373,1.373,0,1,1-1.373-1.373A1.377,1.377,0,0,1,353.276,256.683Z" transform="translate(54.919 331.114)" fill="#26242b"/>
    <path id="Path_140-2" data-name="Path 140" d="M391.436,185.353a1.373,1.373,0,1,1-1.373-1.373A1.377,1.377,0,0,1,391.436,185.353Z" transform="translate(619.347 344.484)" fill="#26242b"/>
    <path id="Path_3860-2" data-name="Path 3860" d="M391.436,185.353a1.373,1.373,0,1,1-1.373-1.373A1.377,1.377,0,0,1,391.436,185.353Z" transform="translate(54 344.484)" fill="#26242b"/>
    <path id="Path_141-2" data-name="Path 141" d="M372.386,290.343a1.373,1.373,0,1,1-1.373-1.373A1.377,1.377,0,0,1,372.386,290.343Z" transform="translate(619.805 324.804)" fill="#26242b"/>
    <path id="Path_3868-2" data-name="Path 3868" d="M372.386,290.343a1.373,1.373,0,1,1-1.373-1.373A1.377,1.377,0,0,1,372.386,290.343Z" transform="translate(54.459 324.804)" fill="#26242b"/>
    <path id="Path_142-2" data-name="Path 142" d="M488.456,258.373A1.373,1.373,0,1,1,487.083,257,1.377,1.377,0,0,1,488.456,258.373Z" transform="translate(617.013 330.797)" fill="#26242b"/>
    <path id="Path_3886-2" data-name="Path 3886" d="M488.456,258.373A1.373,1.373,0,1,1,487.083,257,1.377,1.377,0,0,1,488.456,258.373Z" transform="translate(-280.474 330.797)" fill="#322f39"/>
    <path id="Path_3865-2" data-name="Path 3865" d="M488.456,258.373A1.373,1.373,0,1,1,487.083,257,1.377,1.377,0,0,1,488.456,258.373Z" transform="translate(196.812 330.797)" fill="#26242b"/>
    <path id="Path_143-2" data-name="Path 143" d="M257.836,252.223a1.373,1.373,0,1,1-1.373-1.373A1.377,1.377,0,0,1,257.836,252.223Z" transform="translate(622.561 331.95)" fill="#26242b"/>
    <path id="Path_3873-2" data-name="Path 3873" d="M257.836,252.223a1.373,1.373,0,1,1-1.373-1.373A1.377,1.377,0,0,1,257.836,252.223Z" transform="translate(57.215 331.95)" fill="#26242b"/>
    <path id="Path_144-2" data-name="Path 144" d="M111.5,56.283a1.373,1.373,0,1,1-1.373-1.373A1.377,1.377,0,0,1,111.5,56.283Z" transform="translate(612.176 368.678)" fill="#26242b"/>
    <path id="Path_145-2" data-name="Path 145" d="M69.856,111.5a1.373,1.373,0,1,1-1.373-1.373A1.377,1.377,0,0,1,69.856,111.5Z" transform="translate(619.981 358.327)" fill="#26242b"/>
    <path id="Path_146-2" data-name="Path 146" d="M43.146,249.683a1.373,1.373,0,1,1-1.373-1.373A1.377,1.377,0,0,1,43.146,249.683Z" transform="translate(770.134 332.426)" fill="#26242b"/>
    <path id="Path_147-2" data-name="Path 147" d="M189.016,27.931c0,.382-.618.691-1.373.691s-1.373-.309-1.373-.691.618-.691,1.373-.691S189.016,27.557,189.016,27.931Z" transform="translate(624.217 373.865)" fill="#26242b"/>
    <path id="Path_148-2" data-name="Path 148" d="M160.146,266.373A1.373,1.373,0,1,1,158.773,265,1.377,1.377,0,0,1,160.146,266.373Z" transform="translate(603.057 329.298)" fill="#26242b"/>
    <path id="Path_149-2" data-name="Path 149" d="M123.606,176.3a1.373,1.373,0,1,1-1.373-1.373A1.377,1.377,0,0,1,123.606,176.3Z" transform="translate(609.906 346.181)" fill="#26242b"/>
    <path id="Path_150-2" data-name="Path 150" d="M197.483,236.726a2.746,2.746,0,1,1-2.746-2.746A2.748,2.748,0,0,1,197.483,236.726Z" transform="translate(624.213 335.112)" fill="#26242b"/>
    <ellipse id="Ellipse_4-2" data-name="Ellipse 4" cx="2.746" cy="2.746" rx="2.746" ry="2.746" transform="translate(837.417 511.49)" fill="#26242b"/>
    <path id="Path_151-2" data-name="Path 151" d="M725.1,29.446a2.746,2.746,0,1,1-2.746-2.746A2.748,2.748,0,0,1,725.1,29.446Z" transform="translate(647.742 363.564)" fill="#433f4d"/>
    <path id="Path_153-2" data-name="Path 153" d="M469.476,75.993A1.373,1.373,0,1,1,468.1,74.62,1.377,1.377,0,0,1,469.476,75.993Z" transform="translate(638.274 354.581)" fill="#26242b"/>
    <path id="Path_3876-2" data-name="Path 3876" d="M469.476,75.993A1.373,1.373,0,1,1,468.1,74.62,1.377,1.377,0,0,1,469.476,75.993Z" transform="translate(-290.018 364.984)" fill="#322f39"/>
    <path id="Path_3909" data-name="Path 3909" d="M469.476,75.993A1.373,1.373,0,1,1,468.1,74.62,1.377,1.377,0,0,1,469.476,75.993Z" transform="translate(-405.483 438.84)" fill="#433f4d"/>
    <path id="Path_3861-2" data-name="Path 3861" d="M469.476,75.993A1.373,1.373,0,1,1,468.1,74.62,1.377,1.377,0,0,1,469.476,75.993Z" transform="translate(52.123 364.984)" fill="#26242b"/>
    <path id="Path_154-2" data-name="Path 154" d="M652.576,45.483A1.373,1.373,0,1,1,651.2,44.11,1.377,1.377,0,0,1,652.576,45.483Z" transform="translate(647.823 360.3)" fill="#322f39"/>
    <ellipse id="Ellipse_5-2" data-name="Ellipse 5" cx="2.746" cy="2.746" rx="2.746" ry="2.746" transform="translate(1280.459 377.409)" fill="#322f39"/>
    <ellipse id="Ellipse_7-2" data-name="Ellipse 7" cx="1.373" cy="1.373" rx="1.373" ry="1.373" transform="translate(1121.383 485.675)" fill="#26242b"/>
    <ellipse id="Ellipse_118-2" data-name="Ellipse 118" cx="1.373" cy="1.373" rx="1.373" ry="1.373" transform="translate(223.896 485.675)" fill="#26242b"/>
    <ellipse id="Ellipse_123" data-name="Ellipse 123" cx="1.373" cy="1.373" rx="1.373" ry="1.373" transform="translate(98.43 559.532)" fill="#433f4d"/>
    <ellipse id="Ellipse_115-2" data-name="Ellipse 115" cx="1.373" cy="1.373" rx="1.373" ry="1.373" transform="translate(556.036 485.675)" fill="#26242b"/>
    <path id="Path_155-2" data-name="Path 155" d="M461.14,290.343a1.373,1.373,0,1,1,1.373,1.373A1.377,1.377,0,0,1,461.14,290.343Z" transform="translate(617.604 324.804)" fill="#26242b"/>
    <path id="Path_3869-2" data-name="Path 3869" d="M461.14,290.343a1.373,1.373,0,1,1,1.373,1.373A1.377,1.377,0,0,1,461.14,290.343Z" transform="translate(197.404 324.804)" fill="#26242b"/>
    <path id="Path_156-2" data-name="Path 156" d="M334.15,117.053a1.373,1.373,0,1,1,1.373,1.373A1.377,1.377,0,0,1,334.15,117.053Z" transform="translate(620.659 357.287)" fill="#26242b"/>
    <path id="Path_3900-2" data-name="Path 3900" d="M334.15,117.053a1.373,1.373,0,1,1,1.373,1.373A1.377,1.377,0,0,1,334.15,117.053Z" transform="translate(972.177 475.873)" fill="#433f4d"/>
    <path id="Path_3879-2" data-name="Path 3879" d="M334.15,117.053a1.373,1.373,0,1,1,1.373,1.373A1.377,1.377,0,0,1,334.15,117.053Z" transform="translate(-286.828 357.287)" fill="#433f4d"/>
    <path id="Path_3866-2" data-name="Path 3866" d="M334.15,117.053a1.373,1.373,0,1,1,1.373,1.373A1.377,1.377,0,0,1,334.15,117.053Z" transform="translate(55.313 357.287)" fill="#26242b"/>
    <path id="Path_158-2" data-name="Path 158" d="M58.91,17.333a1.373,1.373,0,1,1,1.373,1.373A1.377,1.377,0,0,1,58.91,17.333Z" transform="translate(621.518 375.979)" fill="#26242b"/>
    <path id="Path_159-2" data-name="Path 159" d="M568.45,23.543a1.373,1.373,0,1,1,1.373,1.373A1.377,1.377,0,0,1,568.45,23.543Z" transform="translate(635.827 364.413)" fill="#322f39"/>
    <path id="Path_3874-2" data-name="Path 3874" d="M568.45,23.543a1.373,1.373,0,1,1,1.373,1.373A1.377,1.377,0,0,1,568.45,23.543Z" transform="translate(-282.465 374.815)" fill="#26242b"/>
    <path id="Path_3855-2" data-name="Path 3855" d="M568.45,23.543a1.373,1.373,0,1,1,1.373,1.373A1.377,1.377,0,0,1,568.45,23.543Z" transform="translate(49.676 374.815)" fill="#26242b"/>
    <ellipse id="Ellipse_8-2" data-name="Ellipse 8" cx="1.373" cy="1.373" rx="1.373" ry="1.373" transform="translate(1142.188 403.037)" fill="#26242b"/>
    <ellipse id="Ellipse_117-2" data-name="Ellipse 117" cx="1.373" cy="1.373" rx="1.373" ry="1.373" transform="translate(223.896 413.439)" fill="#26242b"/>
    <ellipse id="Ellipse_113-2" data-name="Ellipse 113" cx="1.373" cy="1.373" rx="1.373" ry="1.373" transform="translate(556.036 413.439)" fill="#26242b"/>
    <path id="Path_160-2" data-name="Path 160" d="M717.91,94.163a1.373,1.373,0,1,1,1.373,1.373A1.377,1.377,0,0,1,717.91,94.163Z" transform="translate(648.061 351.175)" fill="#433f4d"/>
    <path id="Path_161-2" data-name="Path 161" d="M544.52,58.706a2.746,2.746,0,1,1,2.747,2.746A2.748,2.748,0,0,1,544.52,58.706Z" transform="translate(636.816 358.079)" fill="#322f39"/>
    <path id="Path_3875-2" data-name="Path 3875" d="M544.52,58.706a2.746,2.746,0,1,1,2.747,2.746A2.748,2.748,0,0,1,544.52,58.706Z" transform="translate(-281.476 368.481)" fill="#26242b"/>
    <path id="Path_3856-2" data-name="Path 3856" d="M544.52,58.706a2.746,2.746,0,1,1,2.747,2.746A2.748,2.748,0,0,1,544.52,58.706Z" transform="translate(50.665 368.481)" fill="#26242b"/>
    <path id="Path_162-2" data-name="Path 162" d="M284.923,24.926a2.746,2.746,0,1,1-2.746-2.746A2.748,2.748,0,0,1,284.923,24.926Z" transform="translate(622.179 374.813)" fill="#26242b"/>
    <path id="Path_3903-2" data-name="Path 3903" d="M284.923,24.926a2.746,2.746,0,1,1-2.746-2.746A2.748,2.748,0,0,1,284.923,24.926Z" transform="translate(973.697 493.4)" fill="#322f39"/>
    <path id="Path_3871-2" data-name="Path 3871" d="M284.923,24.926a2.746,2.746,0,1,1-2.746-2.746A2.748,2.748,0,0,1,284.923,24.926Z" transform="translate(56.832 374.813)" fill="#26242b"/>
    <ellipse id="Ellipse_9-2" data-name="Ellipse 9" cx="2.746" cy="2.746" rx="2.746" ry="2.746" transform="translate(663.129 403.412)" fill="#26242b"/>
    <path id="Path_3895-2" data-name="Path 3895" d="M526.833,237.816a2.746,2.746,0,1,1-2.747-2.746A2.748,2.748,0,0,1,526.833,237.816Z" transform="translate(4.394 142.465)" fill="#26242b"/>
    <path id="Path_3898-2" data-name="Path 3898" d="M197.483,236.726a2.746,2.746,0,1,1-2.746-2.746A2.748,2.748,0,0,1,197.483,236.726Z" transform="translate(577.402 142.669)" fill="#26242b"/>
  </g>
</svg>
