<svg xmlns="http://www.w3.org/2000/svg" width="225.615" height="136.976" viewBox="0 0 225.615 136.976">
  <g id="Group_2175" data-name="Group 2175" transform="translate(-426.5 -99)">
    <g id="Group_2126" data-name="Group 2126" transform="translate(459 99)">
      <path id="Path_3959" data-name="Path 3959" d="M131.1,48.112V35.07h4.568a6,6,0,0,1,3.6.909,3.114,3.114,0,0,1,1.227,2.666A2.946,2.946,0,0,1,140,40.332a2.845,2.845,0,0,1-1.371,1.071,2.757,2.757,0,0,1,1.581,1.012,3,3,0,0,1,.578,1.863,3.443,3.443,0,0,1-1.2,2.849,5.409,5.409,0,0,1-3.422.985Zm2.688-7.578h1.988q2.033-.035,2.034-1.621a1.494,1.494,0,0,0-.516-1.276,2.7,2.7,0,0,0-1.626-.391h-1.881Zm0,1.9v3.521h2.3a2.223,2.223,0,0,0,1.483-.453,1.554,1.554,0,0,0,.532-1.25,1.637,1.637,0,0,0-1.854-1.818Z" transform="translate(-131.095 -34.891)" fill="#fff"/>
      <path id="Path_3960" data-name="Path 3960" d="M159.718,41.914a7.874,7.874,0,0,1-.681,3.377,5.13,5.13,0,0,1-1.949,2.24,5.762,5.762,0,0,1-5.8.008,5.168,5.168,0,0,1-1.97-2.226,7.619,7.619,0,0,1-.708-3.328v-.646a7.818,7.818,0,0,1,.694-3.39,5.17,5.17,0,0,1,1.961-2.249,5.749,5.749,0,0,1,5.8,0,5.165,5.165,0,0,1,1.963,2.249,7.817,7.817,0,0,1,.694,3.381Zm-2.723-.592a5.5,5.5,0,0,0-.735-3.117,2.595,2.595,0,0,0-4.184-.014,5.434,5.434,0,0,0-.743,3.087v.636a5.551,5.551,0,0,0,.735,3.1,2.572,2.572,0,0,0,4.192.041,5.519,5.519,0,0,0,.735-3.095Z" transform="translate(-128.124 -34.917)" fill="#fff"/>
      <path id="Path_3961" data-name="Path 3961" d="M178.39,41.914a7.875,7.875,0,0,1-.681,3.377,5.13,5.13,0,0,1-1.949,2.24,5.762,5.762,0,0,1-5.8.008,5.178,5.178,0,0,1-1.971-2.226,7.652,7.652,0,0,1-.708-3.328v-.646a7.819,7.819,0,0,1,.695-3.39,5.155,5.155,0,0,1,1.961-2.249,5.749,5.749,0,0,1,5.8,0A5.165,5.165,0,0,1,177.7,37.95a7.817,7.817,0,0,1,.694,3.381Zm-2.723-.592a5.5,5.5,0,0,0-.735-3.117,2.595,2.595,0,0,0-4.184-.014,5.416,5.416,0,0,0-.743,3.087v.636a5.552,5.552,0,0,0,.735,3.1,2.572,2.572,0,0,0,4.192.041,5.529,5.529,0,0,0,.735-3.095Z" transform="translate(-124.957 -34.917)" fill="#fff"/>
      <path id="Path_3962" data-name="Path 3962" d="M195.575,37.247h-4V48.112h-2.687V37.247h-3.942V35.07h10.624Z" transform="translate(-121.961 -34.891)" fill="#fff"/>
      <path id="Path_3963" data-name="Path 3963" d="M213.268,43.794a4.621,4.621,0,0,1-1.554,3.315,5.461,5.461,0,0,1-3.695,1.208,4.907,4.907,0,0,1-3.946-1.689,6.924,6.924,0,0,1-1.437-4.635v-.8a7.818,7.818,0,0,1,.662-3.315,4.973,4.973,0,0,1,1.9-2.2,5.919,5.919,0,0,1,6.5.443,4.963,4.963,0,0,1,1.594,3.4H210.6a2.725,2.725,0,0,0-.7-1.833,2.6,2.6,0,0,0-1.841-.568,2.281,2.281,0,0,0-2.011.963,5.392,5.392,0,0,0-.685,2.988v.985a5.762,5.762,0,0,0,.641,3.09,2.24,2.24,0,0,0,2.02.977,2.65,2.65,0,0,0,1.858-.57,2.562,2.562,0,0,0,.7-1.759Z" transform="translate(-118.961 -34.917)" fill="#fff"/>
      <path id="Path_3964" data-name="Path 3964" d="M228.6,45.426h-4.711l-.9,2.687h-2.857L224.99,35.07h2.49l4.882,13.042H229.5Zm-3.986-2.177h3.261l-1.64-4.882Z" transform="translate(-115.993 -34.891)" fill="#fff"/>
      <path id="Path_3965" data-name="Path 3965" d="M242.984,35.07l3.35,9.46,3.332-9.46h3.53V48.112h-2.7V44.547l.268-6.153-3.519,9.718H245.4l-3.511-9.71.268,6.145v3.565h-2.687V35.07Z" transform="translate(-112.713 -34.891)" fill="#fff"/>
      <path id="Path_3966" data-name="Path 3966" d="M263.743,43.517v4.6h-2.688V35.07h5.088a5.877,5.877,0,0,1,2.585.538,3.948,3.948,0,0,1,1.715,1.528,4.258,4.258,0,0,1,.6,2.253,3.746,3.746,0,0,1-1.311,3.022,5.467,5.467,0,0,1-3.633,1.106Zm0-2.177h2.4a2.353,2.353,0,0,0,1.626-.5,1.824,1.824,0,0,0,.56-1.433,2.151,2.151,0,0,0-.565-1.55,2.11,2.11,0,0,0-1.558-.609h-2.463Z" transform="translate(-109.053 -34.891)" fill="#fff"/>
    </g>
    <g id="Group_2127" data-name="Group 2127" transform="translate(457 191.256)">
      <path id="Shape" d="M147.984,114.272a3.915,3.915,0,0,1,3.746,0q8.555,4.723,17.11,9.445a3.431,3.431,0,0,1,1.779,2.965v18.948a3.471,3.471,0,0,1-1.911,3.028q-8.528,4.7-17.051,9.4a3.8,3.8,0,0,1-3.787-.1q-2.556-1.447-5.116-2.89a3.025,3.025,0,0,1-.987-.695c.218-.287.607-.32.923-.448a12.05,12.05,0,0,0,2.018-.925.481.481,0,0,1,.526.032c1.457.816,2.9,1.656,4.363,2.466.312.175.628-.057.9-.2q8.365-4.618,16.738-9.229a.54.54,0,0,0,.3-.533q.007-9.376,0-18.752a.582.582,0,0,0-.357-.584q-8.495-4.676-16.989-9.358a.6.6,0,0,0-.668,0q-8.495,4.677-16.989,9.36a.579.579,0,0,0-.359.582v18.752a.528.528,0,0,0,.309.526q2.267,1.256,4.537,2.5a3.58,3.58,0,0,0,2.836.371,2.1,2.1,0,0,0,1.393-1.977c.008-6.213,0-12.427.006-18.641a.473.473,0,0,1,.468-.48.271.271,0,0,1,.054,0c.726,0,1.454-.011,2.178,0a.494.494,0,0,1,.48.509.475.475,0,0,1,0,.059q0,9.381-.006,18.76a4.73,4.73,0,0,1-2.276,4.295,7.154,7.154,0,0,1-6.264-.168c-1.662-.811-3.248-1.767-4.881-2.636a3.463,3.463,0,0,1-1.909-3.026V126.682a3.438,3.438,0,0,1,1.84-3Q139.461,118.978,147.984,114.272Z" transform="translate(-129.095 -113.795)" fill="#78b743"/>
      <path id="Shape-2" d="M150.481,125.435a13.736,13.736,0,0,1,7.363,1.1,5.419,5.419,0,0,1,2.716,4.709.522.522,0,0,1-.566.375c-.719,0-1.439.009-2.158,0a.551.551,0,0,1-.52-.528,3.211,3.211,0,0,0-1.572-2.219,9.5,9.5,0,0,0-4.31-.6,5.955,5.955,0,0,0-3.087.749,1.886,1.886,0,0,0-.65,2.135c.232.537.866.71,1.384.869,2.987.764,6.15.688,9.083,1.692a4.245,4.245,0,0,1,2.815,2.448,5.134,5.134,0,0,1-.9,4.987,7.2,7.2,0,0,1-3.843,2.022,18.861,18.861,0,0,1-5.8.241,9.262,9.262,0,0,1-5.1-1.875,5.171,5.171,0,0,1-1.723-4.121.48.48,0,0,1,.53-.416c.724-.006,1.448-.008,2.173,0a.5.5,0,0,1,.518.484v.006a3.2,3.2,0,0,0,1.225,2.259c1.474.929,3.319.866,5,.891,1.4-.061,2.964-.08,4.1-.981a2.183,2.183,0,0,0,.618-2.113c-.177-.626-.846-.917-1.42-1.108-2.947-.911-6.15-.581-9.07-1.612a4.381,4.381,0,0,1-2.787-2.378,4.78,4.78,0,0,1,.993-5.061A8.112,8.112,0,0,1,150.481,125.435Z" transform="translate(-126.633 -111.831)" fill="#78b743"/>
      <path id="Union_17" data-name="Union 17" d="M254.82,151.5c-3.388,3.248-6.731,5.2-9.423,5.105a4.649,4.649,0,0,1-2.414-.6c-2.371-1.345-3.249-4.875-2.46-9.843q.218-1.358.557-2.69a21.526,21.526,0,0,1-2.6-.833c-4.689-1.768-7.288-4.276-7.288-7.061,0-2.738,2.6-5.245,7.288-7.055.833-.278,1.673-.558,2.6-.833-.233-.93-.419-1.811-.557-2.69-.833-4.968.047-8.45,2.46-9.843a4.662,4.662,0,0,1,2.414-.608c2.69,0,6.033,1.95,9.376,5.246,3.39-3.3,6.778-5.246,9.425-5.246a4.666,4.666,0,0,1,2.412.6c2.416,1.393,3.3,4.922,2.508,9.98-.138.884-.324,1.766-.557,2.691a21.533,21.533,0,0,1,2.6.833c4.689,1.764,7.288,4.27,7.288,7.056,0,2.738-2.6,5.245-7.288,7.055-.836.278-1.671.558-2.6.836.233.93.419,1.811.557,2.69.833,4.967-.047,8.448-2.46,9.842a4.664,4.664,0,0,1-2.414.6C261.55,156.751,258.21,154.8,254.82,151.5Zm5.431-6.453a48.418,48.418,0,0,1-3.946,4.875c2.785,2.785,5.618,4.642,7.893,4.642a2.505,2.505,0,0,0,1.345-.325h0c1.578-.882,2.088-3.716,1.437-7.66a23.466,23.466,0,0,0-.512-2.508,42.586,42.586,0,0,1-6.216.975Zm-17.594,1.53h0c-.649,3.945-.14,6.778,1.439,7.66a2.624,2.624,0,0,0,1.345.325c2.275,0,5.106-1.9,7.892-4.642a42.915,42.915,0,0,1-3.946-4.875,59.759,59.759,0,0,1-6.221-.975C242.98,144.96,242.794,145.795,242.656,146.582Zm12.162,1.766q1.37-1.495,2.6-3.11c-.835.047-1.718.047-2.6.047s-1.764,0-2.6-.047Q253.445,146.852,254.818,148.348Zm-4.223-20.1c-.789,1.207-1.578,2.412-2.275,3.62-.744,1.253-1.393,2.508-2,3.76q.916,1.921,2,3.759,1.063,1.858,2.275,3.621a63.677,63.677,0,0,0,8.452,0c.788-1.207,1.578-2.414,2.274-3.621q1.081-1.835,2-3.759c-.6-1.253-1.253-2.507-2-3.76-.7-1.208-1.439-2.413-2.274-3.62q-2.114-.14-4.228-.14T250.594,128.248Zm-6.822,13.785q2.026.432,4.084.7c-.512-.743-.93-1.485-1.393-2.274h0c-.466-.742-.882-1.532-1.254-2.275C244.654,139.48,244.191,140.781,243.772,142.033Zm20.7-3.9c-.416.788-.833,1.578-1.253,2.274-.465.788-.929,1.531-1.393,2.275,1.439-.187,2.785-.42,4.084-.7-.416-1.253-.881-2.553-1.439-3.853Zm1.209-2.509a48.676,48.676,0,0,1,2.274,5.849c.833-.23,1.67-.512,2.414-.788,3.759-1.44,5.894-3.25,5.894-5.061,0-2.09-3.11-4.365-8.309-5.85A42.118,42.118,0,0,1,265.686,135.628Zm-26.421-5.061c-3.759,1.439-5.894,3.249-5.894,5.061,0,2.089,3.11,4.364,8.309,5.848a44.571,44.571,0,0,1,2.274-5.848,48.958,48.958,0,0,1-2.274-5.85C240.843,130.011,240.011,130.291,239.264,130.567Zm5.943,2.6c.37-.788.787-1.532,1.251-2.322s.93-1.531,1.394-2.274c-1.439.185-2.785.419-4.084.7a31.24,31.24,0,0,0,1.44,3.9Zm18.015-2.364,1.253,2.322h0c.556-1.3,1.022-2.6,1.439-3.9-1.3-.277-2.647-.512-4.084-.7C262.342,129.267,262.761,130.011,263.223,130.8Zm-6.873-9.471a42.913,42.913,0,0,1,3.946,4.876,59.515,59.515,0,0,1,6.222.974c.185-.883.371-1.718.512-2.508.65-3.992.094-6.777-1.439-7.661a2.635,2.635,0,0,0-1.345-.324h0C261.968,116.687,259.135,118.588,256.35,121.329Zm-13.7,3.344a23.734,23.734,0,0,0,.512,2.506,42.655,42.655,0,0,1,6.22-.974,48.154,48.154,0,0,1,3.946-4.876c-2.785-2.785-5.618-4.642-7.892-4.642a2.539,2.539,0,0,0-1.345.324h0C242.516,117.941,242,120.727,242.654,124.673Zm14.764,1.345c-.833-1.067-1.716-2.136-2.6-3.11-.881.974-1.764,2-2.6,3.11.833-.047,1.718-.047,2.6-.047S256.584,125.971,257.418,126.018Zm-6.918,9.609a4.318,4.318,0,1,1,4.318,4.317h0a4.317,4.317,0,0,1-4.316-4.317Z" transform="translate(-111.778 -113.667)" fill="#6978ff"/>
      <path id="Union_17-2" data-name="Union 17-2" d="M202.034,151.5c-3.388,3.248-6.731,5.2-9.424,5.105a4.648,4.648,0,0,1-2.414-.6c-2.371-1.345-3.249-4.875-2.46-9.843q.218-1.358.557-2.69a21.526,21.526,0,0,1-2.6-.833c-4.689-1.768-7.288-4.276-7.288-7.061,0-2.738,2.6-5.245,7.288-7.055.833-.278,1.673-.558,2.6-.833-.233-.93-.419-1.811-.557-2.69-.833-4.968.047-8.45,2.46-9.843a4.662,4.662,0,0,1,2.414-.608c2.69,0,6.033,1.95,9.376,5.246,3.39-3.3,6.778-5.246,9.425-5.246a4.666,4.666,0,0,1,2.412.6c2.416,1.393,3.3,4.922,2.508,9.98-.138.884-.324,1.766-.558,2.691a21.494,21.494,0,0,1,2.6.833c4.689,1.764,7.288,4.27,7.288,7.056,0,2.738-2.6,5.245-7.288,7.055-.836.278-1.673.558-2.6.836.234.93.42,1.811.558,2.69.833,4.967-.047,8.448-2.46,9.842a4.664,4.664,0,0,1-2.414.6C208.764,156.751,205.424,154.8,202.034,151.5Zm5.43-6.453a48.423,48.423,0,0,1-3.946,4.875c2.785,2.785,5.618,4.642,7.893,4.642a2.507,2.507,0,0,0,1.345-.325h0c1.578-.882,2.088-3.716,1.437-7.66a23.455,23.455,0,0,0-.512-2.508,42.613,42.613,0,0,1-6.216.975Zm-17.594,1.53h0c-.649,3.945-.141,6.778,1.439,7.66a2.624,2.624,0,0,0,1.345.325c2.275,0,5.106-1.9,7.891-4.642a42.894,42.894,0,0,1-3.945-4.875,59.762,59.762,0,0,1-6.221-.975C190.194,144.96,190.008,145.795,189.87,146.582Zm12.162,1.766q1.37-1.495,2.6-3.11c-.836.047-1.718.047-2.6.047s-1.764,0-2.6-.047Q200.659,146.852,202.032,148.348Zm-4.223-20.1c-.789,1.207-1.578,2.412-2.275,3.62-.744,1.253-1.393,2.508-2,3.76q.916,1.921,2,3.759,1.063,1.858,2.275,3.621a63.659,63.659,0,0,0,8.45,0c.789-1.207,1.578-2.414,2.275-3.621q1.079-1.835,2-3.759c-.6-1.253-1.251-2.507-2-3.76-.7-1.208-1.439-2.413-2.275-3.62q-2.112-.14-4.227-.14T197.808,128.248Zm-6.822,13.785q2.026.432,4.084.7c-.512-.743-.93-1.485-1.394-2.274h0c-.464-.742-.881-1.532-1.253-2.275C191.868,139.48,191.4,140.781,190.986,142.033Zm20.7-3.9c-.416.788-.833,1.578-1.253,2.274-.466.788-.93,1.531-1.393,2.275,1.437-.187,2.785-.42,4.084-.7-.418-1.253-.881-2.553-1.439-3.853Zm1.209-2.509a48.668,48.668,0,0,1,2.274,5.849c.833-.23,1.67-.512,2.414-.788,3.759-1.44,5.892-3.25,5.892-5.061,0-2.09-3.109-4.365-8.308-5.85A42.122,42.122,0,0,1,212.9,135.628Zm-26.421-5.061c-3.76,1.439-5.894,3.249-5.894,5.061,0,2.089,3.11,4.364,8.309,5.848a44.415,44.415,0,0,1,2.274-5.848,48.765,48.765,0,0,1-2.274-5.85C188.057,130.011,187.224,130.291,186.478,130.567Zm5.942,2.6c.371-.788.788-1.532,1.253-2.322s.93-1.531,1.394-2.274c-1.439.185-2.785.419-4.084.7a31.058,31.058,0,0,0,1.44,3.9Zm18.017-2.364,1.253,2.322h0c.556-1.3,1.021-2.6,1.439-3.9-1.3-.277-2.647-.512-4.084-.7C209.555,129.267,209.975,130.011,210.437,130.8Zm-6.873-9.471a42.923,42.923,0,0,1,3.946,4.876,59.447,59.447,0,0,1,6.221.974c.186-.883.372-1.718.513-2.508.65-3.992.094-6.777-1.439-7.661a2.634,2.634,0,0,0-1.345-.324h0C209.182,116.687,206.349,118.588,203.564,121.329Zm-13.7,3.344a23.738,23.738,0,0,0,.512,2.506,42.654,42.654,0,0,1,6.22-.974,48.288,48.288,0,0,1,3.945-4.876c-2.784-2.785-5.616-4.642-7.891-4.642a2.539,2.539,0,0,0-1.345.324h0C189.729,117.941,189.219,120.727,189.868,124.673Zm14.764,1.345c-.833-1.067-1.716-2.136-2.6-3.11-.881.974-1.764,2-2.6,3.11.833-.047,1.718-.047,2.6-.047S203.8,125.971,204.632,126.018Zm-6.918,9.609a4.318,4.318,0,1,1,4.318,4.317h0a4.317,4.317,0,0,1-4.316-4.317Z" transform="translate(-120.731 -113.667)" fill="#2ac7e3"/>
    </g>
    <g id="Group_2174" data-name="Group 2174" transform="translate(-1167.474 386)">
      <path id="Path_3970" data-name="Path 3970" d="M218.1,91.909a4.236,4.236,0,0,0-1.652-3.592,21.629,21.629,0,0,0-5.945-2.642,42.08,42.08,0,0,1-6.8-2.739q-6.826-3.688-6.826-9.937a9.672,9.672,0,0,1,1.83-5.793,11.937,11.937,0,0,1,5.257-3.978,19.778,19.778,0,0,1,7.692-1.432,18.024,18.024,0,0,1,7.653,1.556,12.183,12.183,0,0,1,5.216,4.391,11.485,11.485,0,0,1,1.857,6.44h-8.257a5.4,5.4,0,0,0-1.735-4.28,7.126,7.126,0,0,0-4.871-1.528,7.622,7.622,0,0,0-4.708,1.28,4.038,4.038,0,0,0-1.678,3.372A3.868,3.868,0,0,0,207.1,76.3a22.214,22.214,0,0,0,5.793,2.477q7.048,2.119,10.268,5.257a10.47,10.47,0,0,1,3.22,7.816,9.646,9.646,0,0,1-3.936,8.161q-3.937,2.96-10.6,2.959a20.477,20.477,0,0,1-8.422-1.692,13.326,13.326,0,0,1-5.794-4.639,11.87,11.87,0,0,1-2-6.826h8.284q0,6.633,7.928,6.633a7.714,7.714,0,0,0,4.6-1.2A3.9,3.9,0,0,0,218.1,91.909Z" transform="translate(1475.389 -317.358)" fill="#04d361"/>
      <path id="Path_3971" data-name="Path 3971" d="M309.871,90.085l-2.863,2.862v9.083h-7.954V64.114h7.954V83.176l1.542-1.982,7.625-8.945h9.551L314.962,84.662l11.7,17.369h-9.138Z" transform="translate(1492.929 -316.965)" fill="#04d361"/>
      <path id="Fill_6" data-name="Fill 6" d="M285.244,77.608a5.179,5.179,0,0,1,5.646,4.406.134.134,0,0,0,.13.139h7.305a.136.136,0,0,0,.137-.136v0h0c-.55-7.3-5.37-11.426-13.219-11.426A13.956,13.956,0,0,0,274.5,75.132a16.457,16.457,0,0,0-3.856,11.157c0,9.364,5.51,15.141,14.183,15.141,7.711,0,12.668-4.13,13.494-11.289V90h-7.159c-.139,0-.139,0-.139.139-.55,2.889-2.476,4.267-5.783,4.267-5.506,0-6.332-5.094-6.332-8.123-.137-4.406,1.653-8.675,6.332-8.675" transform="translate(1488.11 -315.868)" fill="#04d361"/>
      <path id="Fill_16" data-name="Fill 16" d="M272.454,101.334h-5.646a4.03,4.03,0,0,1-3.857-4.2l0-.075v-.136c-1.929,2.753-5.1,4.13-9.225,4.13-5.783,0-9.639-3.443-9.639-8.673q0-7.644,10.326-9.5l4.958-.964c2.34-.413,2.889-.827,2.889-2.2,0-1.793-1.654-2.753-4.682-2.753-3.17,0-4.819.964-4.819,2.889a.137.137,0,0,1-.133.139h-7.3a.136.136,0,0,1-.137-.136v0c0-5.783,4.956-9.5,12.666-9.5,8.4,0,12.392,3.58,12.392,11.157V93.351c0,1.1.55,1.653,1.517,1.653h.685a.134.134,0,0,1,.137.131v.006h0v5.918c.139.14,0,.277-.137.277ZM262.4,87.151a3.156,3.156,0,0,1-1.513.414l-4.269.826c-3.029.687-4.267,1.65-4.267,3.44,0,2.48,1.926,3.029,3.58,3.029a6.612,6.612,0,0,0,6.609-6.609V87.156Z" transform="translate(1483.607 -315.907)" fill="#04d361"/>
      <path id="Fill_18" data-name="Fill 18" d="M244.1,78.707a.133.133,0,0,0,.136-.131V78.57h0V71.825a.133.133,0,0,0-.13-.137h-6.757V64.254a.136.136,0,0,0-.13-.14h-7.441a.137.137,0,0,0-.137.134v.006h0v7.436h-5.1a.133.133,0,0,0-.137.13v.006h0v6.746a.135.135,0,0,0,.131.137h5.1v15.7c0,6.609,3.717,7.986,9.5,7.986h5.1a.133.133,0,0,0,.137-.13v-.006h0V95.648a.134.134,0,0,0-.13-.139h-3.863c-2.2,0-2.889-.55-2.889-2.753V78.71Z" transform="translate(1480.27 -316.965)" fill="#04d361"/>
      <path id="Fill_4" data-name="Fill 4" d="M92.789,93.224c-8.771,0-14.757-6.264-14.757-15.592,0-9.048,6.265-15.451,14.757-15.451,8.769,0,14.758,6.265,14.758,15.451C107.408,86.542,101.281,93.224,92.789,93.224Zm0-24.379c-4.84,0-7.253,3.638-7.253,8.786s2.419,8.926,7.253,8.926c5.5,0,7.254-3.635,7.254-8.926-.135-5.149-2.136-8.786-7.254-8.783Z" transform="translate(1558.443 -307.735)" fill="#fff"/>
      <path id="Subtraction_3" data-name="Subtraction 3" d="M19.3,40.6a20.673,20.673,0,0,1-7.855-1.471,17.423,17.423,0,0,1-6.1-4.151A18.591,18.591,0,0,1,1.4,28.542,24.086,24.086,0,0,1,0,20.209a22.619,22.619,0,0,1,1.454-8.15A18.975,18.975,0,0,1,5.486,5.667,18.062,18.062,0,0,1,11.6,1.493,19.926,19.926,0,0,1,19.3,0a21.293,21.293,0,0,1,5.925.808,17.418,17.418,0,0,1,11.634,10.8H27.391a10.273,10.273,0,0,0-3.422-3.054,9.68,9.68,0,0,0-4.662-1.147h-.018a9.9,9.9,0,0,0-7.759,3.871A13.287,13.287,0,0,0,9.3,15.367a14.949,14.949,0,0,0-.8,4.841,14.717,14.717,0,0,0,3.026,9.016A9.86,9.86,0,0,0,19.3,33.19a9.757,9.757,0,0,0,7.107-2.768,12.723,12.723,0,0,0,3.381-6.809h8.4l0,.011c-.017.114-.039.3-.065.523-.054.463-.127,1.1-.215,1.527a18.38,18.38,0,0,1-6.359,10.768A19.1,19.1,0,0,1,19.3,40.6Z" transform="translate(1594.474 -255.113)" fill="#fff" stroke="rgba(0,0,0,0)" stroke-width="1"/>
      <path id="Union_92" data-name="Union 92" d="M0,6-.112-1.5h19.78V3.544L14,4.252V6Z" transform="translate(1613 -235)" fill="#fff"/>
    </g>
  </g>
</svg>
