<svg xmlns="http://www.w3.org/2000/svg" viewBox="0 0 30.702 30.702">
  <defs>
    <style>
      .cls-1 {
        fill: #010101;
      }
    </style>
  </defs>
  <path id="Shape" class="cls-1" d="M27.911,30.7H2.791A2.794,2.794,0,0,1,0,27.911V2.791A2.794,2.794,0,0,1,2.791,0h25.12A2.794,2.794,0,0,1,30.7,2.791v25.12A2.794,2.794,0,0,1,27.911,30.7ZM18.839,15.351c1.311,0,2.093,1.043,2.093,2.791v7.675a.7.7,0,0,0,.7.7h4.186a.7.7,0,0,0,.7-.7V18.142c0-4.238-2.465-6.977-6.281-6.977-.066,0-.132,0-.2,0a5.372,5.372,0,0,0-3.291,1.133v-.432a.7.7,0,0,0-.7-.7H11.862a.7.7,0,0,0-.7.7V25.816a.7.7,0,0,0,.7.7h4.186a.7.7,0,0,0,.7-.7V18.142C16.746,16.394,17.529,15.351,18.839,15.351ZM4.884,11.165a.7.7,0,0,0-.7.7V25.816a.7.7,0,0,0,.7.7H9.072a.7.7,0,0,0,.7-.7V11.862a.7.7,0,0,0-.7-.7ZM6.977,4.186A2.79,2.79,0,1,0,9.769,6.977,2.794,2.794,0,0,0,6.977,4.186Z"/>
</svg>
