<?xml version="1.0" encoding="UTF-8"?>
<svg width="179px" height="40px" viewBox="0 0 179 40" version="1.1" xmlns="http://www.w3.org/2000/svg" xmlns:xlink="http://www.w3.org/1999/xlink">
    <!-- Generator: Sketch 50.2 (55047) - http://www.bohemiancoding.com/sketch -->
    <title>Group 28</title>
    <desc>Created with Sketch.</desc>
    <defs></defs>
    <g id="VSL" stroke="none" stroke-width="1" fill="none" fill-rule="evenodd">
        <g transform="translate(-1011.000000, -62.000000)" fill="#FFFFFF" id="Group-28">
            <g transform="translate(1011.000000, 62.000000)">
                <path d="M54.1350153,18.3880788 L50.8945048,18.3880788 L50.8945048,13.7898522 L54.1612056,13.7898522 C56.6016314,13.7898522 57.1138195,14.9973399 57.1138195,16.0103448 C57.1138195,17.6103448 56.1394608,18.3880788 54.1350153,18.3880788 Z M57.1996765,21.4052217 C59.1025114,20.7636453 61.084902,19.0237438 61.0581209,16.0103448 C61.0581209,12.4728079 58.664759,10.5246305 54.3187414,10.5246305 L47.0624476,10.5246305 C47.0147931,10.5246305 46.9761968,10.5630542 46.9761968,10.6107389 L46.9761968,29.3256158 C46.9761968,29.3733005 47.0147931,29.4119212 47.0624476,29.4119212 L50.808254,29.4119212 C50.8559086,29.4119212 50.8945048,29.3733005 50.8945048,29.3256158 L50.8945048,21.7057143 L53.0121792,21.7057143 L57.5712639,29.3697537 C57.5868206,29.3959606 57.6149801,29.4119212 57.6453057,29.4119212 L61.9934894,29.4119212 C62.0247997,29.4119212 62.0535499,29.3949754 62.0689097,29.3675862 C62.0840725,29.3403941 62.0832848,29.3068966 62.0667436,29.2802956 L57.1996765,21.4052217 Z" id="Fill-2"></path>
                <path d="M69.3200441,26.2635862 C67.4179968,26.2635862 66.2366756,24.8131429 66.2366756,22.4783645 C66.2366756,20.1745222 67.4179968,18.7433892 69.3200441,18.7433892 C71.2057471,18.7433892 72.3772223,20.1745222 72.3772223,22.4783645 C72.3772223,24.8131429 71.2057471,26.2635862 69.3200441,26.2635862 M69.3200441,15.5094975 C65.4604182,15.5094975 62.6590386,18.440335 62.6590386,22.4783645 C62.6590386,26.6618128 65.3359649,29.4724532 69.3200441,29.4724532 C73.1645073,29.4724532 75.9548593,26.5309754 75.9548593,22.4783645 C75.9548593,18.3098916 73.2885667,15.5094975 69.3200441,15.5094975" id="Fill-4"></path>
                <path d="M83.9919002,18.7434286 C85.4276417,18.7434286 86.2980267,19.4186995 86.579425,20.7501281 C86.5878925,20.789931 86.6229442,20.8185025 86.6637066,20.8185025 L89.990271,20.8185025 C90.0144921,20.8185025 90.0373348,20.8084532 90.053876,20.7907192 C90.0700234,20.7729852 90.0782941,20.7493399 90.0761279,20.7253005 C89.8049695,17.4104236 87.6158133,15.5093399 84.0704712,15.5093399 C82.0634657,15.5093399 80.3768485,16.2116059 79.1929673,17.5404729 C78.0604822,18.8112118 77.4618463,20.5538719 77.4618463,22.5794877 C77.4618463,26.8313103 79.9438221,29.4724926 83.9393227,29.4724926 C87.4754096,29.4724926 89.7120234,27.5999803 90.075931,24.3349557 C90.0786879,24.3107192 90.0708111,24.2862857 90.0546637,24.2679606 C90.0383194,24.2496355 90.0148859,24.2391921 89.990271,24.2391921 L86.6637066,24.2391921 C86.6225504,24.2391921 86.5873018,24.2683547 86.5792281,24.3085517 C86.3171279,25.625202 85.4782501,26.2384039 83.9393227,26.2384039 C81.4159937,26.2384039 81.0392864,23.914266 81.0392864,22.5288473 C81.0392864,20.6988966 81.814953,18.7434286 83.9919002,18.7434286" id="Fill-6"></path>
                <path d="M107.734763,20.848532 C108.077207,19.3842956 109.018877,18.6424236 110.535158,18.6424236 C112.023281,18.6424236 112.93049,19.3844926 113.233352,20.848532 L107.734763,20.848532 Z M110.587342,15.5094187 C106.650327,15.5094187 104.005105,18.3303054 104.005105,22.5289261 C104.005105,26.8767094 106.475462,29.4723744 110.613532,29.4723744 C113.645702,29.4723744 116.039655,27.6213399 116.435463,24.9706995 C116.439205,24.946069 116.431919,24.9208473 116.415574,24.901931 C116.39923,24.8828177 116.375206,24.8719803 116.350197,24.8719803 L113.049823,24.8719803 C113.013196,24.8719803 112.980704,24.8948374 112.968495,24.9293202 C112.606557,25.9531626 111.886618,26.3902069 110.561349,26.3902069 C108.807779,26.3902069 107.817667,25.4605517 107.617793,23.6272512 L116.716861,23.6272512 C116.762153,23.6272512 116.799765,23.5921773 116.802718,23.5470542 C116.828712,23.1722759 116.855493,22.7848867 116.855493,22.3263645 C116.855493,18.1216355 114.453663,15.5094187 110.587342,15.5094187 Z" id="Fill-8"></path>
                <path d="M127.450481,15.5094187 L124.393303,15.5094187 L124.393303,12.1478424 C124.393303,12.1001576 124.354707,12.061734 124.307249,12.061734 L120.90172,12.061734 C120.854065,12.061734 120.815666,12.1001576 120.815666,12.1478424 L120.815666,15.5094187 L118.492014,15.5094187 C118.444556,15.5094187 118.405763,15.5480394 118.405763,15.5955271 L118.405763,18.6376946 C118.405763,18.6853793 118.444556,18.723803 118.492014,18.723803 L120.815666,18.723803 L120.815666,25.8240985 C120.815666,28.8520788 122.535956,29.4723744 125.119149,29.4723744 L127.450481,29.4723744 C127.498136,29.4723744 127.536535,29.4339507 127.536535,29.386266 L127.536535,26.3961182 C127.536535,26.3486305 127.498136,26.3100099 127.450481,26.3100099 L125.721723,26.3100099 C124.691242,26.3100099 124.393303,26.0319803 124.393303,25.0702069 L124.393303,18.723803 L127.450481,18.723803 C127.498136,18.723803 127.536535,18.6853793 127.536535,18.6376946 L127.536535,15.5955271 C127.536535,15.5480394 127.498136,15.5094187 127.450481,15.5094187" id="Fill-10"></path>
                <path d="M137.242254,21.3842956 C137.24186,21.3842956 137.241466,21.3840985 137.241269,21.3839015 L134.361319,20.4735567 C133.287516,20.1104039 133.084098,19.821931 133.084098,19.4164138 C133.084098,18.9973005 133.267824,18.4398621 134.857753,18.4398621 C136.092834,18.4398621 136.843885,18.9478424 136.867122,19.7982857 C136.868303,19.8449852 136.906506,19.8822266 136.953176,19.8822266 L140.279937,19.8822266 C140.30278,19.8822266 140.324835,19.8729655 140.340982,19.8566108 C140.357326,19.8404532 140.366188,19.8181872 140.365991,19.79533 C140.353585,18.2993695 139.788819,17.1697143 138.687054,16.4378916 C137.772755,15.8304039 136.475645,15.5094187 134.936324,15.5094187 C132.295828,15.5094187 129.455458,16.608532 129.401699,19.6948374 C129.401699,22.0968079 131.167281,22.9519803 132.893676,23.4715862 L135.092678,24.1543448 C136.686153,24.6761182 137.102835,24.8373005 137.102835,25.4388768 C137.102835,26.1161182 136.72534,26.5673498 134.883747,26.5673498 C133.409212,26.5673498 132.65757,26.030798 132.585891,24.9271527 C132.582937,24.8818325 132.545522,24.8465616 132.500034,24.8465616 L129.173272,24.8465616 C129.125815,24.8465616 129.087022,24.8851823 129.087022,24.93267 C129.087022,28.6847882 132.253687,29.4723744 134.910134,29.4723744 C136.012884,29.4723744 137.592968,29.3054778 138.858768,28.5104039 C140.067461,27.7511921 140.680472,26.6156256 140.680472,25.1352315 C140.680472,22.9651823 139.305972,22.066266 137.242254,21.3842956" id="Fill-12"></path>
                <path d="M145.635168,20.848532 C145.977808,19.3842956 146.919281,18.6424236 148.435366,18.6424236 C149.923488,18.6424236 150.830894,19.3844926 151.133757,20.848532 L145.635168,20.848532 Z M148.487944,15.5094187 C144.550731,15.5094187 141.905509,18.3303054 141.905509,22.5289261 C141.905509,26.8767094 144.375867,29.4723744 148.513937,29.4723744 C151.546106,29.4723744 153.940059,27.6213399 154.335868,24.9706995 C154.339609,24.946069 154.332323,24.9208473 154.315979,24.901931 C154.299438,24.8828177 154.27561,24.8719803 154.250601,24.8719803 L150.95003,24.8719803 C150.9136,24.8719803 150.881109,24.8948374 150.8689,24.9293202 C150.507158,25.9531626 149.78722,26.3902069 148.461753,26.3902069 C146.708183,26.3902069 145.718268,25.4605517 145.518198,23.6272512 L154.617266,23.6272512 C154.662361,23.6272512 154.700169,23.5921773 154.703123,23.5470542 C154.729116,23.1722759 154.755897,22.7848867 154.755897,22.3263645 C154.755897,18.1216355 152.354068,15.5094187 148.487944,15.5094187 Z" id="Fill-14"></path>
                <path d="M164.623405,23.53133 C164.623405,25.2629557 163.292031,26.6194089 161.592417,26.6194089 C160.85515,26.6194089 159.976101,26.3853202 159.976101,25.2696552 C159.976101,24.45133 160.548546,23.9939901 161.950614,23.69133 L163.912525,23.2887685 C164.133666,23.2501478 164.414867,23.1764532 164.623405,23.0749754 L164.623405,23.53133 Z M169.215179,26.6440394 L168.900698,26.6440394 C168.43006,26.6440394 168.201042,26.4085714 168.201042,25.9240394 L168.201042,20.5587192 C168.201042,17.1610837 166.347831,15.5094581 162.535466,15.5094581 C159.030098,15.5094581 156.765128,17.2142857 156.765128,19.8531034 C156.765128,19.9007882 156.803724,19.9392118 156.851379,19.9392118 L160.177943,19.9392118 C160.225598,19.9392118 160.264194,19.9007882 160.264194,19.8531034 C160.264194,18.9740887 161.001855,18.5283744 162.456895,18.5283744 C163.837302,18.5283744 164.597412,18.9632512 164.597412,19.7524138 C164.597412,20.4095567 164.346733,20.6006897 163.252844,20.7760591 L161.001264,21.2042365 C157.877527,21.7555665 156.293505,23.1995074 156.293505,25.4962562 C156.293505,27.8383251 158.054755,29.4119212 160.675756,29.4119212 C162.566579,29.4119212 163.973373,28.7815764 164.86286,27.5376355 C164.92548,28.8182266 165.778733,29.4869951 166.621943,29.4869951 L169.215179,29.4869951 C169.262833,29.4869951 169.301429,29.4483744 169.301429,29.4006897 L169.301429,26.7301478 C169.301429,26.6826601 169.262833,26.6440394 169.215179,26.6440394 Z" id="Fill-16"></path>
                <path d="M178.791994,18.7238621 C178.839648,18.7238621 178.878048,18.6852414 178.878048,18.6377537 L178.878048,15.5955862 C178.878048,15.5479015 178.839648,15.5094778 178.791994,15.5094778 L175.734816,15.5094778 L175.734816,12.1479015 C175.734816,12.1002167 175.696219,12.0617931 175.648565,12.0617931 L172.243232,12.0617931 C172.195578,12.0617931 172.157179,12.1002167 172.157179,12.1479015 L172.157179,15.5094778 L169.833329,15.5094778 C169.785872,15.5094778 169.747275,15.5479015 169.747275,15.5955862 L169.747275,18.6377537 C169.747275,18.6852414 169.785872,18.7238621 169.833329,18.7238621 L172.157179,18.7238621 L172.157179,25.8241576 C172.157179,28.8519409 173.877469,29.4724335 176.460661,29.4724335 L178.791994,29.4724335 C178.839648,29.4724335 178.878048,29.4340099 178.878048,29.3863251 L178.878048,26.3961773 C178.878048,26.3486897 178.839648,26.310069 178.791994,26.310069 L177.063039,26.310069 C176.032755,26.310069 175.734816,26.0320394 175.734816,25.070266 L175.734816,18.7238621 L178.791994,18.7238621 Z" id="Fill-18"></path>
                <path d="M98.9767405,20.9818719 L104.388684,15.6571429 C104.413693,15.6325123 104.421176,15.5952709 104.408179,15.5629557 C104.394789,15.5304433 104.363282,15.5093596 104.328427,15.5093596 L100.061571,15.5093596 C100.039122,15.5093596 100.017658,15.5180296 100.001707,15.5337931 L95.2047438,20.1895567 L95.2047438,15.595665 C95.2047438,15.5479803 95.1659506,15.5093596 95.118493,15.5093596 L91.7131607,15.5093596 C91.6655062,15.5093596 91.6269099,15.5479803 91.6269099,15.595665 L91.6269099,29.3862069 C91.6269099,29.4338916 91.6655062,29.4725123 91.7131607,29.4725123 L95.118493,29.4725123 C95.1659506,29.4725123 95.2047438,29.4338916 95.2047438,29.3862069 L95.2047438,24.715468 L96.4152091,23.524532 L100.443201,29.4348768 C100.459349,29.4583251 100.48613,29.4725123 100.514486,29.4725123 L104.757909,29.4725123 C104.790204,29.4725123 104.819545,29.4545813 104.834511,29.4260099 C104.84928,29.3974384 104.847113,29.3631527 104.828603,29.3367488 L98.9767405,20.9818719 Z" id="Fill-20"></path>
                <path d="M15.8968147,26.0975172 C14.8962658,25.4843153 10.6743076,22.9071724 10.6743076,22.9071724 C10.6743076,22.9071724 6.45431859,20.3258916 5.4523912,19.7152512 C5.35668823,19.6569261 5.2344011,19.7227389 5.22908427,19.8346601 C5.21805677,20.0685517 5.20171243,20.4108177 5.19285105,20.6019507 C5.18871573,20.6947586 5.21234609,20.7855961 5.26177294,20.8642167 C5.48251991,21.2157438 6.13294565,22.2512118 6.46062002,22.7735764 C6.58408867,22.9706207 6.62091265,23.2096355 6.5624275,23.4346601 L5.71547591,26.6947586 C5.68160572,26.8255961 5.72788185,26.96333 5.83382464,27.047468 C6.2703956,27.394069 6.80995556,27.7753498 7.46057822,28.1727882 C8.11080704,28.5704236 8.6964462,28.8766305 9.20390825,29.1067783 C9.32698306,29.1625419 9.47073443,29.140867 9.5713604,29.0510148 L12.0830711,26.8082562 C12.2565573,26.6533793 12.4857718,26.5769261 12.7173494,26.5970246 C13.3311481,26.6500296 14.5481118,26.7558424 14.96184,26.7919015 C15.0545892,26.7999803 15.1467476,26.7794877 15.2272878,26.7331823 C15.3932911,26.6380099 15.6900491,26.4673695 15.8926794,26.3509163 C15.9897608,26.2951527 15.9923208,26.1560394 15.8968147,26.0975172" id="Fill-22"></path>
                <path d="M8.80809967,30.2596453 C8.76477734,29.996197 8.59719868,29.769399 8.35833509,29.6503842 C7.68920198,29.3165911 7.15712497,28.9973793 7.01160132,28.9085123 C6.86607767,28.8196453 6.33912057,28.4917635 5.73674323,28.0484138 C5.52190385,27.8901872 5.24365633,27.84467 4.98962992,27.9264433 L4.84430319,27.9731429 C3.83508977,28.298266 3.05745391,29.1093005 2.77546491,30.1319606 C2.08427679,32.6385616 0.783031463,37.3581675 0.197983058,39.4799409 C0.111929153,39.791665 0.487258086,40.0208276 0.724940154,39.8021084 C2.34421078,38.3122562 5.94587195,34.9981675 7.85855292,33.2379704 C8.63894565,32.5199409 9.00482244,31.4572808 8.83271463,30.4105813 L8.80809967,30.2596453 Z" id="Fill-24"></path>
                <path d="M33.3667224,1.79521182 C33.6725387,1.38989163 33.4892065,1.08289655 33.3525442,0.957182266 C33.3525442,0.957182266 33.3523473,0.956985222 33.3521504,0.956788177 C33.2080052,0.843684729 33.0327466,0.763093596 32.8311009,0.732551724 L28.3996201,0.0604334975 C27.9884518,-0.00183251232 27.5768897,0.168807882 27.3301493,0.503586207 L24.9119755,3.78378325 C24.5399942,4.28821675 24.6674012,4.95304433 25.1006245,5.31048276 C25.1321317,5.3368867 25.1407961,5.38299507 25.1189381,5.41905419 C25.1006245,5.44880788 25.0657697,5.46319212 25.033278,5.45826601 L23.8137543,5.27324138 L22.1338325,5.01846305 C21.6663451,4.94772414 21.198267,5.14141872 20.9176564,5.52230542 L13.8492241,15.1110739 C13.7572626,15.235803 13.5855486,15.2698916 13.4530217,15.1898916 L6.64865864,11.0777734 C6.19869714,10.8058522 5.61148262,10.9571823 5.34977635,11.4170837 C5.09476535,11.8651626 5.27593146,12.4387586 5.71683465,12.7053596 L5.89268394,12.8115665 C5.97972244,12.8639803 6.02658933,12.9636847 6.01142651,13.0643744 L5.80485776,14.4346207 C5.78516579,14.5662463 5.63806678,14.6352118 5.52444411,14.5664433 C5.52444411,14.5664433 4.55382695,13.9891034 4.52901507,13.973931 C3.72420429,13.4809261 2.6722593,13.7341281 2.17956623,14.5394483 C1.74082915,15.2566897 1.89462343,16.1688079 2.50152992,16.7083153 C2.52023729,16.7252611 2.6962835,16.8608276 2.74177195,16.8886108 C2.74275655,16.889202 2.74374114,16.8899901 2.74472574,16.8903842 C2.74492266,16.8905813 2.74511958,16.8907783 2.74511958,16.8907783 L7.82820759,20.00467 C10.5758281,21.6651626 12.6643583,20.3035862 13.3163594,19.8153103 C13.8951064,19.3818128 14.5526212,18.9031921 15.6494639,19.5695961 C16.0425156,19.8086108 16.5387532,19.7997438 16.9345618,19.565064 L18.1999678,18.8149163 C18.5733275,18.5936355 19.0382549,18.5956059 19.4100393,18.8200394 L23.2643484,21.1494975 C23.4157796,21.2409261 23.6119117,21.2021084 23.7170668,21.0596453 L33.1379018,8.29944828 C33.9062824,7.27402956 33.3375783,6.77531034 32.8695002,6.65274877 C32.8393715,6.64585222 32.8100305,6.63737931 32.7789172,6.63265025 L30.5194606,6.29018719 C30.4861812,6.284867 30.4527048,6.2706798 30.4219854,6.25196059 C30.2967444,6.17550739 30.2573605,6.01117241 30.3339623,5.88565517 C31.0997829,4.85058128 33.3667224,1.79521182 33.3667224,1.79521182" id="Fill-26"></path>
            </g>
        </g>
    </g>
</svg>